<svg width="225" height="225" viewBox="0 0 225 225" fill="none" xmlns="http://www.w3.org/2000/svg">
<path d="M0 4.00001C0 1.79087 1.79086 0 4 0H221C223.209 0 225 1.79086 225 4V225H0V4.00001Z" fill="white"/>
<g opacity="0.5">
<path fill-rule="evenodd" clip-rule="evenodd" d="M100.129 157.505C102.688 157.505 104.762 155.43 104.762 152.871C104.762 150.312 102.688 148.237 100.129 148.237C97.5696 148.237 95.495 150.312 95.495 152.871C95.495 155.43 97.5696 157.505 100.129 157.505ZM100.129 160C104.066 160 107.257 156.808 107.257 152.871C107.257 148.934 104.066 145.742 100.129 145.742C96.1916 145.742 93 148.934 93 152.871C93 156.808 96.1916 160 100.129 160Z" fill="#B4CAF1"/>
<path fill-rule="evenodd" clip-rule="evenodd" d="M116.523 157.505C119.082 157.505 121.156 155.43 121.156 152.871C121.156 150.312 119.082 148.237 116.523 148.237C113.963 148.237 111.889 150.312 111.889 152.871C111.889 155.43 113.963 157.505 116.523 157.505ZM116.523 160C120.46 160 123.651 156.808 123.651 152.871C123.651 148.934 120.46 145.742 116.523 145.742C112.585 145.742 109.394 148.934 109.394 152.871C109.394 156.808 112.585 160 116.523 160Z" fill="#B4CAF1"/>
<path d="M121.156 142.356C121.156 142.16 121.316 142 121.513 142H123.295C123.492 142 123.651 142.16 123.651 142.356V152.693C123.651 152.89 123.492 153.049 123.295 153.049H121.513C121.316 153.049 121.156 152.89 121.156 152.693V142.356Z" fill="#B4CAF1"/>
<path d="M125.787 142.356C125.787 142.16 125.946 142 126.143 142H127.925C128.122 142 128.282 142.16 128.282 142.356V143.96C128.282 144.157 128.122 144.317 127.925 144.317H126.143C125.946 144.317 125.787 144.157 125.787 143.96V142.356Z" fill="#B4CAF1"/>
<path d="M125.787 147.347C125.787 147.15 125.946 146.99 126.143 146.99H127.925C128.122 146.99 128.282 147.15 128.282 147.347V159.644C128.282 159.841 128.122 160 127.925 160H126.143C125.946 160 125.787 159.841 125.787 159.644V147.347Z" fill="#B4CAF1"/>
<path d="M130.418 142.356C130.418 142.16 130.578 142 130.775 142H132.557C132.754 142 132.914 142.16 132.914 142.356V143.96C132.914 144.157 132.754 144.317 132.557 144.317H130.775C130.578 144.317 130.418 144.157 130.418 143.96V142.356Z" fill="#B4CAF1"/>
<path d="M130.418 147.347C130.418 147.15 130.578 146.99 130.775 146.99H132.557C132.754 146.99 132.913 147.15 132.913 147.347V159.644C132.913 159.841 132.754 160 132.557 160H130.775C130.578 160 130.418 159.841 130.418 159.644V147.347Z" fill="#B4CAF1"/>
</g>
<g opacity="0.6">
<g opacity="0.5">
<path opacity="0.0244" d="M112.801 137.715C149.947 137.715 180.06 132.976 180.06 127.131C180.06 121.286 149.947 116.547 112.801 116.547C75.6552 116.547 45.5425 121.286 45.5425 127.131C45.5425 132.976 75.6552 137.715 112.801 137.715Z" fill="#FBFCFE"/>
<path opacity="0.0488" d="M112.801 137.47C149.095 137.47 178.517 132.841 178.517 127.13C178.517 121.42 149.095 116.791 112.801 116.791C76.5066 116.791 47.0844 121.42 47.0844 127.13C47.0844 132.841 76.5066 137.47 112.801 137.47Z" fill="#F8FAFE"/>
<path opacity="0.0732" d="M112.801 137.233C148.243 137.233 176.975 132.71 176.975 127.13C176.975 121.55 148.243 117.027 112.801 117.027C77.3585 117.027 48.6268 121.55 48.6268 127.13C48.6268 132.71 77.3585 137.233 112.801 137.233Z" fill="#F4F7FD"/>
<path opacity="0.0976" d="M112.801 136.988C147.392 136.988 175.433 132.575 175.433 127.13C175.433 121.686 147.392 117.272 112.801 117.272C78.2105 117.272 50.1693 121.686 50.1693 127.13C50.1693 132.575 78.2105 136.988 112.801 136.988Z" fill="#F1F5FC"/>
<path opacity="0.122" d="M112.801 136.743C146.54 136.743 173.891 132.439 173.891 127.13C173.891 121.821 146.54 117.517 112.801 117.517C79.0624 117.517 51.7118 121.821 51.7118 127.13C51.7118 132.439 79.0624 136.743 112.801 136.743Z" fill="#EDF2FC"/>
<path opacity="0.1463" d="M112.801 136.507C145.688 136.507 172.348 132.309 172.348 127.13C172.348 121.952 145.688 117.754 112.801 117.754C79.9137 117.754 53.2535 121.952 53.2535 127.13C53.2535 132.309 79.9137 136.507 112.801 136.507Z" fill="#E9F0FB"/>
<path opacity="0.1707" d="M112.801 136.262C144.836 136.262 170.805 132.174 170.805 127.131C170.805 122.087 144.836 117.999 112.801 117.999C80.7656 117.999 54.796 122.087 54.796 127.131C54.796 132.174 80.7656 136.262 112.801 136.262Z" fill="#E6EDFA"/>
<path opacity="0.1951" d="M112.801 136.018C143.984 136.018 169.263 132.039 169.263 127.131C169.263 122.223 143.984 118.244 112.801 118.244C81.6176 118.244 56.3385 122.223 56.3385 127.131C56.3385 132.039 81.6176 136.018 112.801 136.018Z" fill="#E2EBFA"/>
<path opacity="0.2195" d="M112.801 135.772C143.137 135.772 167.729 131.903 167.729 127.13C167.729 122.357 143.137 118.488 112.801 118.488C82.4649 118.488 57.8727 122.357 57.8727 127.13C57.8727 131.903 82.4649 135.772 112.801 135.772Z" fill="#DFE8F9"/>
<path opacity="0.2439" d="M112.801 135.536C142.285 135.536 166.187 131.773 166.187 127.131C166.187 122.489 142.285 118.726 112.801 118.726C83.3168 118.726 59.4152 122.489 59.4152 127.131C59.4152 131.773 83.3168 135.536 112.801 135.536Z" fill="#DBE6F8"/>
<path opacity="0.2683" d="M112.801 135.291C141.433 135.291 164.644 131.637 164.644 127.13C164.644 122.623 141.433 118.97 112.801 118.97C84.1684 118.97 60.9573 122.623 60.9573 127.13C60.9573 131.637 84.1684 135.291 112.801 135.291Z" fill="#D8E3F7"/>
<path opacity="0.2927" d="M112.801 135.046C140.582 135.046 163.102 131.502 163.102 127.131C163.102 122.759 140.582 119.215 112.801 119.215C85.0204 119.215 62.4998 122.759 62.4998 127.131C62.4998 131.502 85.0204 135.046 112.801 135.046Z" fill="#D4E1F7"/>
<path opacity="0.3171" d="M112.801 134.801C139.73 134.801 161.56 131.366 161.56 127.13C161.56 122.893 139.73 119.459 112.801 119.459C85.8723 119.459 64.0422 122.893 64.0422 127.13C64.0422 131.366 85.8723 134.801 112.801 134.801Z" fill="#D0DEF6"/>
<path opacity="0.3415" d="M112.801 134.565C138.878 134.565 160.018 131.236 160.018 127.13C160.018 123.025 138.878 119.696 112.801 119.696C86.7243 119.696 65.5847 123.025 65.5847 127.13C65.5847 131.236 86.7243 134.565 112.801 134.565Z" fill="#CDDCF5"/>
<path opacity="0.3659" d="M112.801 134.32C138.026 134.32 158.475 131.101 158.475 127.131C158.475 123.16 138.026 119.941 112.801 119.941C87.5755 119.941 67.1265 123.16 67.1265 127.131C67.1265 131.101 87.5755 134.32 112.801 134.32Z" fill="#C9D9F5"/>
<path opacity="0.3902" d="M112.801 134.076C137.174 134.076 156.933 130.966 156.933 127.131C156.933 123.296 137.174 120.187 112.801 120.187C88.4275 120.187 68.6689 123.296 68.6689 127.131C68.6689 130.966 88.4275 134.076 112.801 134.076Z" fill="#C6D7F4"/>
<path opacity="0.4146" d="M112.801 133.839C136.323 133.839 155.391 130.835 155.391 127.131C155.391 123.426 136.323 120.423 112.801 120.423C89.2794 120.423 70.2114 123.426 70.2114 127.131C70.2114 130.835 89.2794 133.839 112.801 133.839Z" fill="#C2D4F3"/>
<path opacity="0.439" d="M112.801 133.593C135.475 133.593 153.856 130.7 153.856 127.13C153.856 123.561 135.475 120.667 112.801 120.667C90.1267 120.667 71.7456 123.561 71.7456 127.13C71.7456 130.7 90.1267 133.593 112.801 133.593Z" fill="#BED2F3"/>
<path opacity="0.4634" d="M112.801 133.349C134.623 133.349 152.314 130.565 152.314 127.13C152.314 123.696 134.623 120.912 112.801 120.912C90.9783 120.912 73.2877 123.696 73.2877 127.13C73.2877 130.565 90.9783 133.349 112.801 133.349Z" fill="#BBCFF2"/>
<path opacity="0.4878" d="M112.801 133.103C133.771 133.103 150.771 130.429 150.771 127.13C150.771 123.831 133.771 121.156 112.801 121.156C91.8299 121.156 74.8298 123.831 74.8298 127.13C74.8298 130.429 91.8299 133.103 112.801 133.103Z" fill="#B7CDF1"/>
<path opacity="0.5122" d="M149.229 127.13C149.229 130.297 132.916 132.867 112.801 132.867C92.6851 132.867 76.3723 130.297 76.3723 127.13C76.3723 123.964 92.6851 121.394 112.801 121.394C132.924 121.394 149.229 123.964 149.229 127.13Z" fill="#B4CAF1"/>
<path opacity="0.5366" d="M112.801 132.622C132.068 132.622 147.687 130.163 147.687 127.13C147.687 124.097 132.068 121.638 112.801 121.638C93.5338 121.638 77.9148 124.097 77.9148 127.13C77.9148 130.163 93.5338 132.622 112.801 132.622Z" fill="#B0C8F0"/>
<path opacity="0.561" d="M146.145 127.13C146.145 130.027 131.219 132.377 112.801 132.377C94.3828 132.377 79.4573 130.027 79.4573 127.13C79.4573 124.233 94.3828 121.883 112.801 121.883C131.219 121.883 146.145 124.233 146.145 127.13Z" fill="#ADC5EF"/>
<path opacity="0.5854" d="M144.602 127.13C144.602 129.897 130.362 132.133 112.801 132.133C95.2396 132.133 80.9995 129.889 80.9995 127.13C80.9995 124.364 95.2396 122.128 112.801 122.128C130.37 122.128 144.602 124.364 144.602 127.13Z" fill="#A9C3EF"/>
<path opacity="0.6098" d="M143.068 127.131C143.068 129.759 129.521 131.897 112.809 131.897C96.0961 131.897 82.5497 129.767 82.5497 127.131C82.5497 124.503 96.0961 122.365 112.809 122.365C129.513 122.365 143.068 124.503 143.068 127.131Z" fill="#A5C0EE"/>
<path opacity="0.6341" d="M112.801 131.651C128.661 131.651 141.518 129.627 141.518 127.13C141.518 124.633 128.661 122.609 112.801 122.609C96.9414 122.609 84.0845 124.633 84.0845 127.13C84.0845 129.627 96.9414 131.651 112.801 131.651Z" fill="#A2BEED"/>
<path opacity="0.6585" d="M139.983 127.131C139.983 129.497 127.816 131.407 112.801 131.407C97.7937 131.407 85.6182 129.489 85.6182 127.131C85.6182 124.772 97.7855 122.854 112.801 122.854C127.816 122.854 139.983 124.772 139.983 127.131Z" fill="#9EBBED"/>
<path opacity="0.6829" d="M112.801 131.161C126.962 131.161 138.441 129.356 138.441 127.13C138.441 124.903 126.962 123.099 112.801 123.099C98.6402 123.099 87.1607 124.903 87.1607 127.13C87.1607 129.356 98.6402 131.161 112.801 131.161Z" fill="#9BB9EC"/>
<path opacity="0.7073" d="M136.899 127.131C136.899 129.228 126.111 130.925 112.801 130.925C99.491 130.925 88.7029 129.228 88.7029 127.131C88.7029 125.033 99.491 123.336 112.801 123.336C126.111 123.336 136.899 125.033 136.899 127.131Z" fill="#97B6EB"/>
<path opacity="0.7317" d="M135.357 127.13C135.357 129.088 125.262 130.68 112.801 130.68C100.348 130.68 90.2454 129.088 90.2454 127.13C90.2454 125.171 100.34 123.58 112.801 123.58C125.262 123.58 135.357 125.171 135.357 127.13Z" fill="#93B4EB"/>
<path opacity="0.7561" d="M112.801 130.435C124.406 130.435 133.814 128.955 133.814 127.13C133.814 125.305 124.406 123.825 112.801 123.825C101.196 123.825 91.7878 125.305 91.7878 127.13C91.7878 128.955 101.196 130.435 112.801 130.435Z" fill="#90B1EA"/>
<path opacity="0.7805" d="M132.272 127.131C132.272 128.82 123.556 130.199 112.801 130.199C102.045 130.199 93.33 128.828 93.33 127.131C93.33 125.442 102.045 124.062 112.801 124.062C123.556 124.062 132.272 125.442 132.272 127.131Z" fill="#8CAFE9"/>
<path opacity="0.8049" d="M112.801 129.954C122.702 129.954 130.729 128.69 130.729 127.13C130.729 125.571 122.702 124.307 112.801 124.307C102.899 124.307 94.8721 125.571 94.8721 127.13C94.8721 128.69 102.899 129.954 112.801 129.954Z" fill="#89ACE8"/>
<path opacity="0.8293" d="M129.195 127.13C129.195 128.559 121.859 129.709 112.809 129.709C103.759 129.709 96.4226 128.55 96.4226 127.13C96.4226 125.711 103.759 124.552 112.809 124.552C121.851 124.552 129.195 125.702 129.195 127.13Z" fill="#85AAE8"/>
<path opacity="0.8537" d="M112.801 129.465C120.999 129.465 127.645 128.42 127.645 127.131C127.645 125.842 120.999 124.797 112.801 124.797C104.603 124.797 97.9571 125.842 97.9571 127.131C97.9571 128.42 104.603 129.465 112.801 129.465Z" fill="#82A7E7"/>
<path opacity="0.878" d="M126.111 127.13C126.111 128.289 120.154 129.228 112.801 129.228C105.448 129.228 99.4912 128.289 99.4912 127.13C99.4912 125.972 105.448 125.033 112.801 125.033C120.154 125.033 126.111 125.972 126.111 127.13Z" fill="#7EA5E6"/>
<path opacity="0.9024" d="M112.801 128.982C119.3 128.982 124.569 128.153 124.569 127.13C124.569 126.107 119.3 125.277 112.801 125.277C106.302 125.277 101.034 126.107 101.034 127.13C101.034 128.153 106.302 128.982 112.801 128.982Z" fill="#7AA2E6"/>
<path opacity="0.9268" d="M112.801 128.738C118.448 128.738 123.026 128.018 123.026 127.13C123.026 126.242 118.448 125.522 112.801 125.522C107.153 125.522 102.576 126.242 102.576 127.13C102.576 128.018 107.153 128.738 112.801 128.738Z" fill="#77A0E5"/>
<path opacity="0.9512" d="M121.483 127.13C121.483 127.881 117.599 128.493 112.801 128.493C108.002 128.493 104.118 127.881 104.118 127.13C104.118 126.38 108.002 125.768 112.801 125.768C117.599 125.768 121.483 126.38 121.483 127.13Z" fill="#739DE4"/>
<path opacity="0.9756" d="M119.941 127.131C119.941 127.751 116.742 128.257 112.801 128.257C108.859 128.257 105.66 127.751 105.66 127.131C105.66 126.511 108.859 126.005 112.801 126.005C116.751 126.005 119.941 126.511 119.941 127.131Z" fill="#709BE4"/>
<path opacity="0.5" d="M118.399 127.13C118.399 127.62 115.894 128.012 112.801 128.012C109.708 128.012 107.203 127.62 107.203 127.13C107.203 126.641 109.708 126.249 112.801 126.249C115.894 126.249 118.399 126.641 118.399 127.13Z" fill="#6C98E3"/>
</g>
<path d="M134.924 101.091C134.826 101.091 134.744 101.009 134.744 100.912V89.0952C134.744 82.6647 129.514 77.4338 123.083 77.4338C116.653 77.4338 111.422 82.6647 111.422 89.0952V100.912C111.422 101.009 111.34 101.091 111.242 101.091H110.451C110.353 101.091 110.271 101.009 110.271 100.912V89.0952C110.271 82.0282 116.016 76.2832 123.083 76.2832C130.15 76.2832 135.895 82.0282 135.895 89.0952V100.912C135.895 101.009 135.813 101.091 135.715 101.091H134.924Z" fill="#6C98E3"/>
<path d="M112.736 127.303H97.3857V92.9636C97.3857 92.2945 97.9243 91.7559 98.5935 91.7559H112.727V127.303H112.736Z" fill="url(#paint0_linear)"/>
<path d="M112.336 127.303H154.493C154.934 127.303 155.293 126.944 155.293 126.503V92.5474C155.293 92.1149 154.942 91.7559 154.501 91.7559H112.328V127.303H112.336Z" fill="url(#paint1_linear)"/>
<path d="M105.065 127.303H97.3941V92.5556C97.3941 92.1149 97.7532 91.7559 98.1938 91.7559H105.065V127.303Z" fill="url(#paint2_linear)"/>
<path d="M112.736 127.303H97.3941L105.065 118.229L112.736 127.303Z" fill="url(#paint3_linear)"/>
<path d="M124.976 100.806C124.976 102.275 123.785 103.466 122.316 103.466C120.847 103.466 119.656 102.275 119.656 100.806C119.656 99.3369 120.847 98.1455 122.316 98.1455C123.785 98.1455 124.976 99.3369 124.976 100.806Z" fill="#89ADE9"/>
<path d="M149.449 100.806C149.449 102.275 148.258 103.466 146.789 103.466C145.32 103.466 144.129 102.275 144.129 100.806C144.129 99.3369 145.32 98.1455 146.789 98.1455C148.258 98.1455 149.449 99.3369 149.449 100.806Z" fill="#89ADE9"/>
<path d="M146.398 101.091C146.3 101.091 146.218 101.009 146.218 100.912V89.0952C146.218 82.6647 140.987 77.4338 134.557 77.4338C128.127 77.4338 122.896 82.6647 122.896 89.0952V100.912C122.896 101.009 122.814 101.091 122.716 101.091H121.925C121.827 101.091 121.745 101.009 121.745 100.912V89.0952C121.745 82.0282 127.49 76.2832 134.557 76.2832C141.624 76.2832 147.369 82.0282 147.369 89.0952V100.912C147.369 101.009 147.287 101.091 147.189 101.091H146.398Z" fill="#6C98E3"/>
<path opacity="0.0244" d="M123.368 125.359C123.368 126.437 122.495 127.31 121.418 127.31H113.159V91.7627H123.368V125.359Z" fill="#FAFBFD"/>
<path opacity="0.0488" d="M123.238 125.359C123.238 126.437 122.365 127.31 121.288 127.31H113.152V91.7627H123.23V125.359H123.238Z" fill="#F5F7FB"/>
<path opacity="0.0732" d="M123.099 125.359C123.099 126.437 122.226 127.31 121.149 127.31H113.152V91.7627H123.099V125.359Z" fill="#F0F3FA"/>
<path opacity="0.0976" d="M122.969 125.359C122.969 126.437 122.096 127.31 121.019 127.31H113.152V91.7627H122.969V125.359Z" fill="#EBEFF8"/>
<path opacity="0.122" d="M122.838 125.359C122.838 126.437 121.965 127.31 120.888 127.31H113.152V91.7627H122.83V125.359H122.838Z" fill="#E6EBF6"/>
<path opacity="0.1463" d="M122.708 125.359C122.708 126.437 121.835 127.31 120.757 127.31H113.152V91.7627H122.7V125.359H122.708Z" fill="#E1E6F4"/>
<path opacity="0.1707" d="M122.577 125.359C122.577 126.437 121.703 127.31 120.626 127.31H113.159V91.7627H122.577V125.359Z" fill="#DCE2F2"/>
<path opacity="0.1951" d="M122.438 125.359C122.438 126.437 121.565 127.31 120.488 127.31H113.152V91.7627H122.438V125.359Z" fill="#D7DEF0"/>
<path opacity="0.2195" d="M122.308 125.359C122.308 126.437 121.435 127.31 120.358 127.31H113.152V91.7627H122.308V125.359Z" fill="#D2DAEF"/>
<path opacity="0.2439" d="M122.177 125.359C122.177 126.437 121.304 127.31 120.227 127.31H113.152V91.7627H122.169V125.359H122.177Z" fill="#CDD6ED"/>
<path opacity="0.2683" d="M122.047 125.359C122.047 126.437 121.174 127.31 120.096 127.31H113.152V91.7627H122.039V125.359H122.047Z" fill="#C9D2EB"/>
<path opacity="0.2927" d="M121.908 125.359C121.908 126.437 121.035 127.31 119.958 127.31H113.152V91.7627H121.908V125.359Z" fill="#C4CEE9"/>
<path opacity="0.3171" d="M121.777 125.359C121.777 126.437 120.904 127.31 119.827 127.31H113.152V91.7627H121.777V125.359Z" fill="#BFCAE7"/>
<path opacity="0.3415" d="M121.647 125.359C121.647 126.437 120.774 127.31 119.697 127.31H113.152V91.7627H121.647V125.359Z" fill="#BAC6E5"/>
<path opacity="0.3659" d="M121.516 125.359C121.516 126.437 120.643 127.31 119.566 127.31H113.152V91.7627H121.508V125.359H121.516Z" fill="#B5C2E4"/>
<path opacity="0.3902" d="M121.386 125.359C121.386 126.437 120.513 127.31 119.435 127.31H113.152V91.7627H121.378V125.359H121.386Z" fill="#B0BDE2"/>
<path opacity="0.4146" d="M121.247 125.359C121.247 126.437 120.374 127.31 119.297 127.31H113.152V91.7627H121.247V125.359Z" fill="#ABB9E0"/>
<path opacity="0.439" d="M121.116 125.359C121.116 126.437 120.243 127.31 119.166 127.31H113.152V91.7627H121.116V125.359Z" fill="#A6B5DE"/>
<path opacity="0.4634" d="M120.986 125.359C120.986 126.437 120.113 127.31 119.036 127.31H113.152V91.7627H120.978V125.359H120.986Z" fill="#A1B1DC"/>
<path opacity="0.4878" d="M120.855 125.359C120.855 126.437 119.982 127.31 118.905 127.31H113.152V91.7627H120.847V125.359H120.855Z" fill="#9CADDA"/>
<path opacity="0.5122" d="M120.725 125.359C120.725 126.437 119.852 127.31 118.774 127.31H113.152V91.7627H120.717V125.359H120.725Z" fill="#97A9D9"/>
<path opacity="0.5366" d="M120.586 125.359C120.586 126.437 119.713 127.31 118.636 127.31H113.152V91.7627H120.586V125.359Z" fill="#92A5D7"/>
<path opacity="0.561" d="M120.455 125.359C120.455 126.437 119.582 127.31 118.505 127.31H113.152V91.7627H120.455V125.359Z" fill="#8DA1D5"/>
<path opacity="0.5854" d="M120.325 125.359C120.325 126.437 119.452 127.31 118.375 127.31H113.152V91.7627H120.317V125.359H120.325Z" fill="#889DD3"/>
<path opacity="0.6098" d="M120.194 125.359C120.194 126.437 119.321 127.31 118.244 127.31H113.152V91.7627H120.186V125.359H120.194Z" fill="#8399D1"/>
<path opacity="0.6341" d="M120.063 125.359C120.063 126.437 119.19 127.31 118.113 127.31H113.159V91.7627H120.063V125.359Z" fill="#7E94CF"/>
<path opacity="0.6585" d="M119.925 125.359C119.925 126.437 119.052 127.31 117.975 127.31H113.152V91.7627H119.925V125.359Z" fill="#7990CE"/>
<path opacity="0.6829" d="M119.795 125.359C119.795 126.437 118.921 127.31 117.844 127.31H113.152V91.7627H119.795V125.359Z" fill="#748CCC"/>
<path opacity="0.7073" d="M119.664 125.359C119.664 126.437 118.791 127.31 117.714 127.31H113.152V91.7627H119.656V125.359H119.664Z" fill="#6F88CA"/>
<path opacity="0.7317" d="M119.533 125.359C119.533 126.437 118.66 127.31 117.583 127.31H113.152V91.7627H119.525V125.359H119.533Z" fill="#6A84C8"/>
<path opacity="0.7561" d="M119.395 125.359C119.395 126.437 118.521 127.31 117.444 127.31H113.152V91.7627H119.395V125.359Z" fill="#6680C6"/>
<path opacity="0.7805" d="M119.264 125.359C119.264 126.437 118.391 127.31 117.314 127.31H113.152V91.7627H119.264V125.359Z" fill="#617CC4"/>
<path opacity="0.8049" d="M119.134 125.359C119.134 126.437 118.26 127.31 117.183 127.31H113.152V91.7627H119.134V125.359Z" fill="#5C78C3"/>
<path opacity="0.8293" d="M119.003 125.359C119.003 126.437 118.13 127.31 117.053 127.31H113.152V91.7627H118.995V125.359H119.003Z" fill="#5774C1"/>
<path opacity="0.8537" d="M118.872 125.359C118.872 126.437 117.999 127.31 116.922 127.31H113.152V91.7627H118.864V125.359H118.872Z" fill="#5270BF"/>
<path opacity="0.878" d="M118.734 125.359C118.734 126.437 117.86 127.31 116.783 127.31H113.152V91.7627H118.734V125.359Z" fill="#4D6BBD"/>
<path opacity="0.9024" d="M118.603 125.359C118.603 126.437 117.73 127.31 116.653 127.31H113.152V91.7627H118.603V125.359Z" fill="#4867BB"/>
<path opacity="0.9268" d="M118.472 125.359C118.472 126.437 117.599 127.31 116.522 127.31H113.152V91.7627H118.464V125.359H118.472Z" fill="#4363B9"/>
<path opacity="0.9512" d="M118.342 125.359C118.342 126.437 117.469 127.31 116.392 127.31H113.152V91.7627H118.334V125.359H118.342Z" fill="#3E5FB8"/>
<path opacity="0.9756" d="M118.211 125.359C118.211 126.437 117.338 127.31 116.261 127.31H113.152V91.7627H118.203V125.359H118.211Z" fill="#395BB6"/>
<path d="M118.073 125.359V91.7627H113.152V127.31H116.122C117.208 127.302 118.073 126.428 118.073 125.359Z" fill="#3457B4"/>
<path d="M98.6262 79.8079C98.5283 79.8079 98.4467 79.7263 98.4467 79.6283V67.812C98.4467 61.3815 93.2158 56.1506 86.7854 56.1506C80.3549 56.1506 75.124 61.3815 75.124 67.812V79.6283C75.124 79.7263 75.0424 79.8079 74.9445 79.8079H74.1529C74.055 79.8079 73.9734 79.7263 73.9734 79.6283V67.812C73.9734 60.745 79.7184 55 86.7854 55C93.8523 55 99.5973 60.745 99.5973 67.812V79.6283C99.5973 79.7263 99.5157 79.8079 99.4178 79.8079H98.6262Z" fill="#6C98E3"/>
<path d="M76.4382 127.302H61.0964V71.6882C61.0964 71.0191 61.635 70.4805 62.3042 70.4805H76.4382V127.302Z" fill="url(#paint4_linear)"/>
<path d="M76.0382 127.302H118.195C118.636 127.302 118.995 126.943 118.995 126.502V71.272C118.995 70.8395 118.644 70.4805 118.203 70.4805H76.03V127.302H76.0382Z" fill="url(#paint5_linear)"/>
<path d="M68.7673 127.302H61.0964V71.2802C61.0964 70.8395 61.4555 70.4805 61.8962 70.4805H68.7673V127.302Z" fill="url(#paint6_linear)"/>
<path d="M76.4382 127.302H61.0964L68.7673 118.228L76.4382 127.302Z" fill="url(#paint7_linear)"/>
<path d="M88.6786 79.5226C88.6786 80.9915 87.4871 82.1829 86.0182 82.1829C84.5493 82.1829 83.3579 80.9915 83.3579 79.5226C83.3579 78.0537 84.5493 76.8623 86.0182 76.8623C87.4871 76.8623 88.6786 78.0537 88.6786 79.5226Z" fill="#89ADE9"/>
<path d="M113.152 79.5226C113.152 80.9915 111.961 82.1829 110.492 82.1829C109.023 82.1829 107.832 80.9915 107.832 79.5226C107.832 78.0537 109.023 76.8623 110.492 76.8623C111.961 76.8623 113.152 78.0537 113.152 79.5226Z" fill="#89ADE9"/>
<path d="M110.1 79.8079C110.002 79.8079 109.921 79.7263 109.921 79.6283V67.812C109.921 61.3815 104.69 56.1506 98.2592 56.1506C91.8287 56.1506 86.5979 61.3815 86.5979 67.812V79.6283C86.5979 79.7263 86.5163 79.8079 86.4183 79.8079H85.6268C85.5288 79.8079 85.4473 79.7263 85.4473 79.6283V67.812C85.4473 60.745 91.1922 55 98.2592 55C105.326 55 111.071 60.745 111.071 67.812V79.6283C111.071 79.7263 110.99 79.8079 110.892 79.8079H110.1Z" fill="#6C98E3"/>
</g>
<defs>
<linearGradient id="paint0_linear" x1="97.3926" y1="109.531" x2="112.739" y2="109.531" gradientUnits="userSpaceOnUse">
<stop stop-color="#E3EDFE"/>
<stop offset="1" stop-color="#B3CDFA"/>
</linearGradient>
<linearGradient id="paint1_linear" x1="112.332" y1="109.531" x2="155.292" y2="109.531" gradientUnits="userSpaceOnUse">
<stop stop-color="#B3CDFA"/>
<stop offset="1" stop-color="#E3EDFE"/>
</linearGradient>
<linearGradient id="paint2_linear" x1="97.3928" y1="109.531" x2="105.066" y2="109.531" gradientUnits="userSpaceOnUse">
<stop stop-color="#E3EDFE"/>
<stop offset="1" stop-color="#B3CDFA"/>
</linearGradient>
<linearGradient id="paint3_linear" x1="97.3928" y1="122.765" x2="112.739" y2="122.765" gradientUnits="userSpaceOnUse">
<stop stop-color="#E3EDFE"/>
<stop offset="1" stop-color="#B3CDFA"/>
</linearGradient>
<linearGradient id="paint4_linear" x1="61.0958" y1="98.8911" x2="76.442" y2="98.8911" gradientUnits="userSpaceOnUse">
<stop stop-color="#E3EDFE"/>
<stop offset="1" stop-color="#B3CDFA"/>
</linearGradient>
<linearGradient id="paint5_linear" x1="76.0348" y1="98.8911" x2="118.995" y2="98.8911" gradientUnits="userSpaceOnUse">
<stop stop-color="#E3EDFE"/>
<stop offset="1" stop-color="#B3CDFA"/>
</linearGradient>
<linearGradient id="paint6_linear" x1="61.0958" y1="98.8911" x2="68.7692" y2="98.8911" gradientUnits="userSpaceOnUse">
<stop stop-color="#E3EDFE"/>
<stop offset="1" stop-color="#B3CDFA"/>
</linearGradient>
<linearGradient id="paint7_linear" x1="61.0958" y1="122.764" x2="76.442" y2="122.764" gradientUnits="userSpaceOnUse">
<stop stop-color="#E3EDFE"/>
<stop offset="1" stop-color="#B3CDFA"/>
</linearGradient>
</defs>
</svg>
