<svg width="22" height="22" viewBox="0 0 22 22" fill="none" xmlns="http://www.w3.org/2000/svg">
<path d="M6.64111 13.5494L9.38482 9.98343L12.5145 12.4419L15.1995 8.97656" stroke="#901EE5" stroke-width="1.5" stroke-linecap="round" stroke-linejoin="round"/>
<path d="M18.3289 5.61191C19.302 5.61191 20.0909 4.82303 20.0909 3.8499C20.0909 2.87677 19.302 2.08789 18.3289 2.08789C17.3558 2.08789 16.5669 2.87677 16.5669 3.8499C16.5669 4.82303 17.3558 5.61191 18.3289 5.61191Z" stroke="#901EE5" stroke-width="1.5" stroke-linecap="round" stroke-linejoin="round"/>
<path d="M13.6806 2.85938H7.01855C4.25806 2.85938 2.54639 4.81436 2.54639 7.57485V14.9837C2.54639 17.7442 4.22449 19.6908 7.01855 19.6908H14.9057C17.6661 19.6908 19.3778 17.7442 19.3778 14.9837V8.53137" stroke="#901EE5" stroke-width="1.5" stroke-linecap="round" stroke-linejoin="round"/>
</svg>
