<svg width="173" height="160" viewBox="0 0 92 95" fill="none" xmlns="http://www.w3.org/2000/svg">
<g clip-path="url(#clip0_2_76324)">
<path opacity="0.24" d="M89.8143 59.7246C90.7337 60.3013 91.2838 61.3173 91.2634 62.4019C91.2436 63.4866 90.6561 64.4816 89.7163 65.0237L39.0926 94.2229C37.0968 95.3747 33.6104 95.23 31.3057 93.9004L3.08485 77.6146C0.780092 76.2845 0.529575 74.2725 2.526 73.1206L56.1779 38.6284L89.8143 59.7246Z" fill="url(#paint0_linear_2_76324)"/>
<path d="M45.9956 27.8192L46.0039 30.2467C49.1411 28.6843 51.3556 29.9368 50.9944 33.0396C50.6139 36.3074 49.4439 39.4536 46.0413 41.4172L46.0496 43.8667C49.837 41.6808 52.9071 36.3658 52.9071 31.9945C52.9071 27.6233 49.7825 25.6333 45.9956 27.8192Z" fill="#637ED2"/>
<path d="M78.8869 62.8276L46.0004 43.8496L2.77661 68.7931L0 69.0111V71.5541H0.000550586C-0.00715762 72.4418 0.63868 73.3801 1.90668 74.1115L30.127 90.3967C32.4317 91.7269 35.918 91.871 37.9139 90.7192L82.567 64.9508V62.5387L78.8869 62.8276Z" fill="#3D56A6"/>
<path d="M82.5679 62.5397L37.9148 88.3082C35.9189 89.46 32.4326 89.3153 30.1279 87.9857L1.9076 71.6999C-0.397154 70.3698 -0.647671 68.3578 1.34875 67.206L46.0018 41.4375L82.5679 62.5397Z" fill="#243A81"/>
<path d="M88.1544 55.1009C88.0454 54.6656 86.9888 50.2046 86.9888 50.2046L86.6668 50.0302L86.9888 48.8827L50.5742 27.2847L42.4624 40.5123L83.0334 62.9645L85.8139 60.1061C85.8139 60.1061 88.2635 55.5362 88.1544 55.1009Z" fill="#637ED2"/>
<path d="M74.6072 60.5077L44.8899 43.3584L5.83129 65.8981L3.32227 66.0946V68.3927H3.32282C3.31566 69.1951 3.89928 70.0426 5.0456 70.7041L30.546 85.4198C32.6289 86.6217 35.7788 86.7522 37.5825 85.7115L80.1538 61.1301V58.9502L74.6072 60.5077Z" fill="#5B991C"/>
<path d="M80.1543 58.9494L37.583 83.5308C35.7793 84.5715 32.6288 84.4411 30.5465 83.2392L5.0461 68.5234C2.96324 67.3215 2.7375 65.5038 4.54067 64.4626L44.8904 41.1777L80.1543 58.9494Z" fill="#67B935"/>
<path d="M74.6072 57.68L44.8899 40.5308L5.83129 63.0704L3.32227 63.2669V65.5651H3.32282C3.31566 66.3674 3.89928 67.2149 5.0456 67.8764L30.546 82.5921C32.6289 83.794 35.7788 83.9245 37.5825 82.8838L80.1538 58.3024V56.1226L74.6072 57.68Z" fill="#5B991C"/>
<path d="M80.1543 56.1218L37.583 80.7032C35.7793 81.7439 32.6288 81.6135 30.5465 80.4115L5.0461 65.6958C2.96324 64.4939 2.7375 62.6762 4.54067 61.635L44.8904 38.3501L80.1543 56.1218Z" fill="#67B935"/>
<path d="M74.6072 54.8503L44.8899 37.7017L5.83129 60.2413L3.32227 60.4378V62.736H3.32282C3.31566 63.5383 3.89928 64.3858 5.0456 65.0473L30.546 79.763C32.6289 80.9649 35.7788 81.0954 37.5825 80.0547L80.1538 55.4733V53.2935L74.6072 54.8503Z" fill="#5B991C"/>
<path d="M80.1543 53.2927L37.583 77.874C35.7793 78.9147 32.6288 78.7843 30.5465 77.5824L5.0461 62.8667C2.96324 61.6648 2.7375 59.847 4.54067 58.8058L44.8904 35.521L80.1543 53.2927Z" fill="#67B935"/>
<path d="M78.8869 49.2036L46.0004 30.2256L2.77661 55.1691L0 55.3865V57.9296H0.000550586C-0.00715762 58.8172 0.63868 59.7555 1.90668 60.4869L30.127 76.7722C32.4317 78.1023 35.918 78.2465 37.9139 77.0947L82.567 51.3262V48.9141L78.8869 49.2036Z" fill="#3D56A6"/>
<path d="M82.5679 48.9157L37.9148 74.6842C35.9189 75.836 32.4326 75.6913 30.1279 74.3617L1.9076 58.0759C-0.397154 56.7458 -0.647671 54.7338 1.34875 53.5819L46.0018 27.8135L82.5679 48.9157Z" fill="#637ED2"/>
<path d="M73.4573 50.7338C73.1947 50.7338 72.9386 50.5973 72.7977 50.3535C72.5879 49.9898 72.7124 49.5253 73.0763 49.3151L75.8364 47.7225C76.2003 47.5128 76.665 47.6372 76.8753 48.0009C77.0851 48.3647 76.9607 48.8291 76.5968 49.0394L73.8367 50.632C73.7172 50.7008 73.5861 50.7338 73.4573 50.7338Z" fill="#EFF8FF"/>
<path d="M33.5396 72.9074C33.4422 72.9074 33.3431 72.8886 33.2473 72.8485C33.1168 72.794 32.9896 72.7318 32.8701 72.6625L27.4667 69.5443C27.1027 69.3341 26.9783 68.8696 27.1881 68.5058C27.3978 68.1421 27.8631 68.0177 28.227 68.2274L33.6305 71.3455C33.6938 71.3824 33.7621 71.4154 33.832 71.4451C34.2196 71.6064 34.4029 72.0516 34.2416 72.439C34.1205 72.7313 33.8375 72.9074 33.5396 72.9074ZM39.3571 70.4122C39.0945 70.4122 38.8385 70.2757 38.6975 70.0319C38.4872 69.6681 38.6122 69.2037 38.9761 68.9934L44.6593 65.714C45.0232 65.5038 45.4879 65.6287 45.6982 65.9925C45.9085 66.3563 45.7836 66.8208 45.4196 67.031L39.7365 70.3109C39.617 70.3792 39.486 70.4122 39.3571 70.4122ZM22.1629 66.3662C22.034 66.3662 21.903 66.3332 21.7835 66.2644L16.1004 62.985C15.7364 62.7748 15.612 62.3103 15.8218 61.9465C16.0315 61.5833 16.4968 61.4584 16.8607 61.668L22.5439 64.9474C22.9078 65.1571 23.0322 65.6221 22.8225 65.9859C22.6815 66.2297 22.4255 66.3662 22.1629 66.3662ZM50.724 63.8528C50.4613 63.8528 50.2053 63.7164 50.0644 63.4726C49.854 63.1088 49.979 62.6443 50.343 62.4341L56.0261 59.1542C56.3901 58.9439 56.8547 59.0689 57.0651 59.4326C57.2748 59.7964 57.1504 60.2609 56.7865 60.4711L51.1033 63.751C50.9833 63.8198 50.8528 63.8528 50.724 63.8528ZM10.796 59.8068C10.6672 59.8068 10.5361 59.7738 10.4167 59.705L4.73352 56.4256C4.36958 56.2154 4.24515 55.7509 4.45492 55.3872C4.66525 55.0234 5.12994 54.899 5.49388 55.1087L11.177 58.3881C11.541 58.5983 11.6654 59.0628 11.4556 59.4266C11.3147 59.6704 11.0592 59.8068 10.796 59.8068ZM62.0903 57.2929C61.8276 57.2929 61.5716 57.1565 61.4307 56.9127C61.2209 56.5489 61.3453 56.0844 61.7093 55.8742L67.3924 52.5943C67.7564 52.3846 68.221 52.509 68.4314 52.8727C68.6411 53.2365 68.5167 53.701 68.1528 53.9112L62.4696 57.1911C62.3501 57.2605 62.2197 57.2929 62.0903 57.2929ZM9.10572 52.9564C8.84309 52.9564 8.58707 52.8199 8.44612 52.5761C8.2358 52.2123 8.36078 51.7479 8.72472 51.5376L14.4079 48.2582C14.7718 48.048 15.237 48.1729 15.4468 48.5367C15.6571 48.9005 15.5322 49.3655 15.1682 49.5752L9.48508 52.8546C9.3656 52.9234 9.23456 52.9564 9.10572 52.9564ZM20.4726 46.3965C20.2099 46.3965 19.9539 46.26 19.813 46.0162C19.6026 45.6524 19.7276 45.1874 20.0916 44.9777L25.7747 41.6978C26.1387 41.4876 26.6033 41.6125 26.8137 41.9763C27.0234 42.34 26.899 42.8051 26.5351 43.0147L20.8519 46.2947C20.7324 46.364 20.6014 46.3965 20.4726 46.3965ZM31.8394 39.8372C31.5768 39.8372 31.3208 39.7007 31.1798 39.4569C30.97 39.0931 31.0945 38.6281 31.4584 38.4184L37.1416 35.1385C37.5055 34.9288 37.9702 35.0532 38.1805 35.4169C38.3903 35.7807 38.2659 36.2457 37.9019 36.4554L32.2188 39.7353C32.0987 39.8041 31.9683 39.8372 31.8394 39.8372Z" fill="#EFF8FF"/>
<path d="M43.207 33.2773C42.9444 33.2773 42.6884 33.1408 42.5475 32.897C42.3371 32.5333 42.4621 32.0682 42.826 31.8586L45.5861 30.2659C45.95 30.0562 46.4153 30.1806 46.6251 30.5444C46.8354 30.9081 46.7104 31.3732 46.3465 31.5828L43.5864 33.1755C43.4669 33.2448 43.3364 33.2773 43.207 33.2773Z" fill="#EFF8FF"/>
<path d="M18.5548 66.1401L12.6206 62.7154C12.0871 62.4078 11.5992 62.383 11.221 62.5899L11.2155 62.5872L8.77197 64.012C8.77197 64.012 9.47232 65.9766 9.47232 66.0399C9.47232 66.0586 9.87865 65.8721 10.4496 65.6002V77.08C10.4496 78.6776 11.4214 80.5338 12.62 81.2256L16.9719 83.7367L17.648 86.1125L19.9274 84.7895C19.9604 84.7724 19.9924 84.7537 20.0238 84.7339L20.0271 84.7317V84.7311C20.456 84.4505 20.7252 83.8495 20.7252 83.0092V70.2846C20.7257 68.6875 19.754 66.8318 18.5548 66.1401Z" fill="#243A81"/>
<path d="M16.1559 86.0439L10.2217 82.6192C9.02305 81.9275 8.05127 80.0712 8.05127 78.4736V65.749C8.05127 64.1514 9.02305 63.4172 10.2217 64.109L16.1559 67.5337C17.3545 68.2254 18.3263 70.0817 18.3263 71.6793V84.4039C18.3263 86.0015 17.3545 86.7356 16.1559 86.0439Z" fill="#637ED2"/>
<path d="M26.9953 60.2072L25.8419 60.7058C25.62 60.5176 25.3667 60.3393 25.0799 60.1742C22.2421 58.537 17.2858 58.7422 14.0092 60.6326L8.05078 64.071L18.3264 70.0008L24.2848 66.5623C26.0346 65.5525 26.9508 64.2669 26.9931 63.0381L26.9948 63.0359V60.2072H26.9953Z" fill="#243A81"/>
<path d="M18.3264 67.3567L8.05078 61.4269L14.0092 57.9885C17.2858 56.0976 22.2422 55.8923 25.0799 57.5301C27.9176 59.1673 27.5614 62.0279 24.2848 63.9188L18.3264 67.3567Z" fill="#637ED2"/>
<path d="M18.3264 67.357L8.05078 61.4272V64.0716V67.357L10.1882 65.7121L18.3264 71.9561V67.357Z" fill="#637ED2"/>
<path d="M23.5014 60.4794V59.2758L22.8771 59.2714C22.7361 59.1476 22.5715 59.0304 22.3826 58.9214C20.8916 58.0607 18.4735 58.0607 16.9825 58.9214C16.8168 59.0172 16.6709 59.1195 16.542 59.2268L15.8643 59.2219V60.4794C15.8643 61.0435 16.237 61.607 16.9825 62.0374C18.4735 62.8981 20.8916 62.8981 22.3826 62.0374C23.1287 61.6076 23.5014 61.0435 23.5014 60.4794Z" fill="#ECC067"/>
<path d="M19.6845 61.4798C21.7933 61.4798 23.5028 60.4932 23.5028 59.2763C23.5028 58.0593 21.7933 57.0728 19.6845 57.0728C17.5757 57.0728 15.8662 58.0593 15.8662 59.2763C15.8662 60.4932 17.5757 61.4798 19.6845 61.4798Z" fill="#FFDA93"/>
<path d="M14.5073 50.4881C15.1054 50.4881 15.5903 50.2082 15.5903 49.8629C15.5903 49.5177 15.1054 49.2378 14.5073 49.2378C13.9092 49.2378 13.4243 49.5177 13.4243 49.8629C13.4243 50.2082 13.9092 50.4881 14.5073 50.4881Z" fill="white"/>
<path d="M88.9608 53.39C88.9608 49.5378 86.5338 47.5351 83.3652 48.6105L83.3674 48.6088C83.0778 48.6693 82.5669 48.9153 82.5669 48.9153L82.5096 48.9676C82.3571 49.043 82.204 49.1245 82.0493 49.2142L82.0576 51.6417C85.1948 50.0793 87.4093 51.3318 87.0481 54.4346C86.6676 57.7024 85.4976 60.8486 82.095 62.8122L82.1033 65.2199C82.2541 65.1329 82.4033 65.0405 82.5515 64.9442L82.5669 64.9524C82.5669 64.9524 82.6935 64.8677 82.7502 64.8121L82.7486 64.8126C86.2332 62.4308 88.9608 57.5098 88.9608 53.39Z" fill="#3D56A6"/>
<path d="M50.9059 59.8565L27.4966 46.3471L32.5697 43.4199L55.979 56.9288L50.9059 59.8565Z" fill="#243A81"/>
<path d="M56.6152 30.4532L57.5132 31.9765L58.6502 32.1333L57.478 30.145L56.6152 30.4532Z" fill="url(#paint1_linear_2_76324)"/>
<path d="M71.7293 21.665L72.6234 23.1823L72.1868 24.6462L70.6914 22.4487L71.7293 21.665Z" fill="url(#paint2_linear_2_76324)"/>
<path d="M68.6055 21.4066C64.6633 21.4412 59.8941 24.2501 57.9533 27.6797C56.0125 31.1094 57.6345 33.8621 61.5767 33.8269C65.5189 33.7922 70.2881 30.9833 72.2289 27.5537C74.1698 24.1241 72.5477 21.3719 68.6055 21.4066Z" fill="url(#paint3_linear_2_76324)"/>
<path d="M67.7112 19.8905C71.6534 19.8558 73.276 22.608 71.3346 26.0376C69.3938 29.4672 64.6246 32.2761 60.6824 32.3107C56.7402 32.3454 55.1177 29.5932 57.059 26.1636C58.9998 22.734 63.769 19.9251 67.7112 19.8905Z" fill="url(#paint4_linear_2_76324)"/>
<path d="M67.5875 20.1092C71.3909 20.0756 72.9563 22.7309 71.0837 26.0401C69.2112 29.3492 64.6093 32.059 60.8059 32.0925C57.0024 32.1261 55.4371 29.4708 57.3097 26.1617C59.1828 22.8526 63.784 20.1428 67.5875 20.1092Z" fill="url(#paint5_linear_2_76324)"/>
<path opacity="0.82" d="M67.146 20.8889C70.4545 20.8598 71.8155 23.1695 70.1869 26.0477C68.5582 28.9259 64.5555 31.283 61.2476 31.3121C57.9391 31.3413 56.578 29.0316 58.2067 26.1534C59.8359 23.2752 63.8381 20.9181 67.146 20.8889Z" fill="url(#paint6_linear_2_76324)"/>
<path opacity="0.82" d="M58.3503 26.1522C59.9674 23.2949 63.9233 20.9517 67.2175 20.8889C67.1938 20.8889 67.1701 20.8884 67.1464 20.8889C63.838 20.9181 59.8358 23.2751 58.2072 26.1533C56.5785 29.0315 57.9396 31.3413 61.248 31.3121C61.2723 31.3121 61.2959 31.311 61.3202 31.3104C58.0635 31.306 56.7332 29.0095 58.3503 26.1522Z" fill="white"/>
<path opacity="0.59" d="M66.8279 21.4504C69.7796 21.4246 70.9942 23.485 69.5412 26.0534C68.0882 28.6217 64.5171 30.7245 61.5654 30.7504C58.6137 30.7763 57.3991 28.7158 58.8521 26.1475C60.3051 23.5796 63.8762 21.4769 66.8279 21.4504Z" fill="url(#paint7_linear_2_76324)"/>
<path opacity="0.82" d="M65.2837 24.6732L65.4246 24.9126L65.8882 24.873L65.6487 24.5962L65.2837 24.6732Z" fill="#FAA925"/>
<path d="M66.6896 22.2729L66.8311 22.5123L66.6637 22.8013L66.4082 22.766L66.6896 22.2729Z" fill="#FAA925"/>
<g opacity="0.82">
<path opacity="0.82" d="M61.7325 30.0093L62.0871 29.3858C61.5216 29.3285 61.1968 29.1458 61.1131 28.8399C61.0294 28.5328 61.1544 28.0887 61.4858 27.5059L61.6163 27.2764L63.2851 27.2665L63.186 27.442C62.9416 27.8713 62.9696 28.0848 63.2697 28.0832C63.3947 28.0821 63.5164 28.0402 63.637 27.956C63.7559 27.8724 63.8555 27.7618 63.9326 27.6253C63.9882 27.5279 63.9717 27.3837 63.8831 27.1922L63.1899 25.9919C62.9355 25.5544 62.9553 25.0778 63.2493 24.5622C63.463 24.1863 63.7939 23.855 64.242 23.5688C64.6902 23.2832 65.1802 23.1016 65.7121 23.024L66.0017 22.5172L66.8314 22.5122L66.5501 23.0053C67.0473 23.0614 67.3506 23.2507 67.458 23.5732C67.5659 23.8963 67.4591 24.3398 67.1381 24.9023L65.4258 24.9127L65.6185 24.5578C65.6576 24.4796 65.6532 24.4125 65.6075 24.3558C65.5612 24.2997 65.4897 24.271 65.39 24.2716C65.2788 24.2716 65.1659 24.3024 65.0531 24.363C64.9402 24.4235 64.857 24.5016 64.8031 24.5957C64.7233 24.735 64.7645 24.9413 64.9259 25.2121L65.6113 26.3568C65.7319 26.5593 65.782 26.7866 65.7622 27.037C65.7418 27.2885 65.6587 27.5416 65.5139 27.7953C65.3652 28.0573 65.1648 28.3005 64.9132 28.5234C64.661 28.7474 64.3604 28.9378 64.0119 29.0963C63.6617 29.2531 63.2956 29.3511 62.9151 29.3891L62.5644 30.0038L61.7325 30.0093Z" fill="url(#paint8_linear_2_76324)"/>
</g>
<path d="M61.5914 29.7705L61.946 29.147C61.3805 29.0898 61.0557 28.9071 60.972 28.6011C60.8883 28.294 61.0133 27.8499 61.3447 27.2671L61.4752 27.0376L63.144 27.0277L63.0449 27.2032C62.8005 27.6325 62.8285 27.846 63.1286 27.8444C63.2536 27.8433 63.3753 27.8014 63.4959 27.7172C63.6148 27.6336 63.7144 27.523 63.7915 27.3865C63.8471 27.2891 63.8306 27.1449 63.742 26.9534L63.0488 25.7531C62.7944 25.3156 62.8142 24.8391 63.1082 24.3234C63.3219 23.9475 63.6522 23.6162 64.101 23.3301C64.5491 23.0444 65.0392 22.8628 65.571 22.7852L65.8606 22.2784L66.6904 22.2734L66.409 22.7665C66.9062 22.8227 67.2096 23.012 67.3169 23.3345C67.4249 23.6575 67.318 24.1011 66.997 24.6635L65.2847 24.674L65.4774 24.319C65.5165 24.2408 65.5121 24.1737 65.4664 24.117C65.4202 24.0609 65.3486 24.0323 65.2489 24.0328C65.1377 24.0328 65.0248 24.0636 64.912 24.1242C64.7991 24.1847 64.716 24.2629 64.662 24.357C64.5822 24.4962 64.6235 24.7026 64.7848 24.9733L65.4703 26.118C65.5908 26.3205 65.6409 26.5478 65.6211 26.7982C65.6008 27.0497 65.5176 27.3029 65.3728 27.5566C65.2242 27.8185 65.0237 28.0618 64.7721 28.2846C64.52 28.5086 64.2193 28.699 63.8708 28.8575C63.5206 29.0144 63.1545 29.1123 62.774 29.1503L62.4233 29.765L61.5914 29.7705Z" fill="#FFE169"/>
<path d="M62.4216 29.7642L62.5719 29.9986L61.7323 30.0096L61.5913 29.7697L62.4216 29.7642Z" fill="#FAA925"/>
<path d="M75.8823 17.3382L77.6359 17.571L78.4607 16.773L76.1714 16.4692L75.8823 17.3382Z" fill="url(#paint9_linear_2_76324)"/>
<path d="M78.2814 0.0258789L80.0278 0.257566L80.9115 1.5035L78.2588 1.32465L78.2814 0.0258789Z" fill="url(#paint10_linear_2_76324)"/>
<path d="M76.1524 2.32426C73.7485 5.44791 73.0195 10.9325 74.5243 14.5745C76.0285 18.2171 79.1966 18.6376 81.6004 15.5139C84.0043 12.3903 84.7333 6.90572 83.2285 3.26367C81.7243 -0.37839 78.5562 -0.798838 76.1524 2.32426Z" fill="url(#paint11_linear_2_76324)"/>
<path d="M74.4063 2.09304C76.8102 -1.03061 79.9782 -0.60961 81.4825 3.03245C82.9867 6.67505 82.2577 12.1596 79.8544 15.2827C77.4505 18.4063 74.2824 17.9853 72.7782 14.3433C71.2735 10.7012 72.0024 5.21669 74.4063 2.09304Z" fill="url(#paint12_linear_2_76324)"/>
<path d="M74.5019 2.32544C76.8209 -0.688142 79.8778 -0.282001 81.3291 3.23183C82.7805 6.74621 82.0774 12.0376 79.7583 15.0512C77.4392 18.0648 74.3824 17.6586 72.9311 14.1448C71.4797 10.6304 72.1828 5.33848 74.5019 2.32544Z" fill="url(#paint13_linear_2_76324)"/>
<path opacity="0.82" d="M74.8443 3.15379C76.8617 0.53259 79.5199 0.885899 80.7824 3.94241C82.0449 6.99892 81.4332 11.6018 79.4158 14.223C77.3985 16.8442 74.7403 16.4909 73.4778 13.4344C72.2153 10.3779 72.827 5.77499 74.8443 3.15379Z" fill="url(#paint14_linear_2_76324)"/>
<path opacity="0.82" d="M73.5653 13.32C72.3122 10.2855 72.9063 5.72773 74.8884 3.09717C74.8735 3.11588 74.8586 3.13404 74.8443 3.1533C72.827 5.7745 72.2153 10.3774 73.4778 13.4339C74.7403 16.4904 77.3991 16.8438 79.4159 14.2226C79.4307 14.2033 79.4445 14.184 79.4594 14.1648C77.4475 16.7243 74.8185 16.3545 73.5653 13.32Z" fill="white"/>
<path opacity="0.59" d="M75.0909 3.75005C76.8908 1.41172 79.2627 1.7265 80.3892 4.45337C81.5157 7.18078 80.9701 11.2873 79.1702 13.6256C77.3703 15.964 74.9984 15.6492 73.8719 12.9223C72.7454 10.1955 73.291 6.08893 75.0909 3.75005Z" fill="url(#paint15_linear_2_76324)"/>
<path opacity="0.82" d="M76.6758 6.9523L76.9522 6.98917L77.2066 6.6001L76.8404 6.61771L76.6758 6.9523Z" fill="#FAA925"/>
<path d="M75.6528 4.36719L75.9287 4.40406L76.0531 4.71389L75.8676 4.89275L75.6528 4.36719Z" fill="#FAA925"/>
<g opacity="0.82">
<path opacity="0.82" d="M78.6891 13.0378L78.4166 12.3741C78.0229 12.7836 77.6788 12.9266 77.3859 12.8039C77.0924 12.6806 76.8199 12.3086 76.565 11.6884L76.4648 11.4441L77.4861 10.1249L77.5632 10.3109C77.7504 10.7683 77.9359 10.8778 78.1193 10.6406C78.1958 10.5415 78.2377 10.4199 78.2454 10.2735C78.2525 10.1288 78.2272 9.98185 78.1672 9.83711C78.1248 9.7331 78.0009 9.65771 77.7955 9.60928L76.4229 9.41446C75.9213 9.34512 75.5585 9.03529 75.3339 8.48606C75.1692 8.08598 75.1125 7.62205 75.1637 7.09264C75.2149 6.56378 75.3746 6.06628 75.6411 5.60016L75.4203 5.06029L75.9279 4.4043L76.1427 4.92986C76.4934 4.5727 76.8293 4.45107 77.1497 4.56554C77.4707 4.68001 77.7542 5.03717 77.9993 5.63648L76.9515 6.99028L76.7907 6.61991C76.7533 6.54121 76.6977 6.50324 76.6244 6.50379C76.5512 6.50544 76.4846 6.54451 76.424 6.62321C76.3558 6.71071 76.31 6.81858 76.288 6.9446C76.266 7.07118 76.2759 7.18454 76.3172 7.2847C76.3778 7.43329 76.5655 7.5285 76.8783 7.56812L78.203 7.73487C78.437 7.76514 78.6467 7.8653 78.8317 8.0359C79.0173 8.20705 79.1654 8.42883 79.2755 8.69904C79.39 8.97751 79.4583 9.28514 79.4787 9.62084C79.4996 9.95764 79.4638 10.3115 79.3741 10.6835C79.2816 11.0555 79.1329 11.4044 78.9281 11.7269L79.1957 12.3818L78.6891 13.0378Z" fill="url(#paint16_linear_2_76324)"/>
</g>
<path d="M78.4133 13.0007L78.1407 12.337C77.747 12.7465 77.4029 12.8895 77.11 12.7668C76.8166 12.6435 76.5435 12.2715 76.2891 11.6513L76.1889 11.407L77.2102 10.0878L77.2873 10.2738C77.4745 10.7312 77.6601 10.8407 77.8434 10.6035C77.9199 10.5044 77.9618 10.3828 77.9695 10.2364C77.9772 10.0917 77.9513 9.94475 77.8913 9.80001C77.8489 9.696 77.725 9.6206 77.5197 9.57218L76.147 9.37736C75.6455 9.30802 75.2826 8.99818 75.058 8.44896C74.8934 8.04887 74.8366 7.58495 74.8879 7.05553C74.9391 6.52667 75.0987 6.02917 75.3652 5.56305L75.1444 5.02318L75.6521 4.36719L75.8668 4.89275C76.2175 4.53559 76.5534 4.41397 76.8738 4.52843C77.1948 4.6429 77.4784 5.00006 77.7234 5.59937L76.6756 6.95317L76.5148 6.5828C76.4774 6.50411 76.4218 6.46613 76.3486 6.46668C76.2759 6.46833 76.2087 6.50741 76.1481 6.5861C76.0799 6.67361 76.0342 6.78147 76.0121 6.90749C75.9901 7.03407 76 7.14744 76.0413 7.2476C76.1019 7.39618 76.2896 7.49139 76.6024 7.53101L77.9271 7.69776C78.1611 7.72803 78.3709 7.82819 78.5559 7.99879C78.7414 8.16994 78.8895 8.39172 78.9996 8.66193C79.1142 8.9404 79.1824 9.24803 79.2028 9.58373C79.2237 9.92053 79.1879 10.2744 79.0982 10.6464C79.0057 11.0184 78.857 11.3673 78.6522 11.6898L78.9198 12.3447L78.4133 13.0007Z" fill="#FFE169"/>
<path d="M78.9212 12.3438L79.1982 12.3702L78.6894 13.0377L78.4136 13.0008L78.9212 12.3438Z" fill="#FAA925"/>
<path d="M39.6172 27.7283L41.3708 27.9617L42.1956 27.1632L39.9062 26.8594L39.6172 27.7283Z" fill="url(#paint17_linear_2_76324)"/>
<path d="M42.0162 10.416L43.7627 10.6477L44.6464 11.8942L41.9937 11.7153L42.0162 10.416Z" fill="url(#paint18_linear_2_76324)"/>
<path d="M39.8872 12.7156C37.4834 15.8392 36.7544 21.3238 38.2592 24.9658C39.7634 28.6084 42.9314 29.0289 45.3353 25.9052C47.7391 22.7816 48.4681 17.2971 46.9634 13.655C45.4586 10.0129 42.2905 9.59195 39.8872 12.7156Z" fill="url(#paint19_linear_2_76324)"/>
<path d="M38.1412 12.4832C40.545 9.35953 43.7131 9.78053 45.2173 13.4226C46.7215 17.0652 45.9925 22.5497 43.5892 25.6728C41.1853 28.7965 38.0173 28.3755 36.5131 24.7334C35.0083 21.0914 35.7373 15.6068 38.1412 12.4832Z" fill="url(#paint20_linear_2_76324)"/>
<path d="M38.237 12.7156C40.556 9.702 43.6129 10.1081 45.0642 13.622C46.5156 17.1363 45.8125 22.4277 43.4934 25.4413C41.1744 28.4549 38.1175 28.0487 36.6662 24.5349C35.2143 21.0211 35.9179 15.7292 38.237 12.7156Z" fill="url(#paint21_linear_2_76324)"/>
<path opacity="0.82" d="M38.5791 13.5439C40.5964 10.9227 43.2546 11.276 44.5171 14.3325C45.7796 17.3891 45.1679 21.992 43.1506 24.6132C41.1332 27.2344 38.475 26.8811 37.2125 23.8246C35.95 20.7681 36.5623 16.1651 38.5791 13.5439Z" fill="url(#paint22_linear_2_76324)"/>
<path opacity="0.82" d="M37.2997 23.7106C36.0466 20.6761 36.6406 16.1183 38.6227 13.4878C38.6079 13.5065 38.593 13.5247 38.5787 13.5439C36.5614 16.1651 35.9497 20.768 37.2121 23.8246C38.4746 26.8811 41.1334 27.2344 43.1502 24.6132C43.1651 24.5939 43.1788 24.5747 43.1937 24.5554C41.1824 27.1144 38.5534 26.7451 37.2997 23.7106Z" fill="white"/>
<path opacity="0.59" d="M38.8258 14.1402C40.6256 11.8019 42.9976 12.1166 44.1241 14.8435C45.2506 17.5709 44.7044 21.6774 42.9051 24.0158C41.1052 26.3547 38.7333 26.0393 37.6068 23.3125C36.4803 20.5856 37.0259 16.4791 38.8258 14.1402Z" fill="url(#paint23_linear_2_76324)"/>
<path opacity="0.82" d="M40.4106 17.343L40.6865 17.3793L40.9409 16.9902L40.5753 17.0078L40.4106 17.343Z" fill="#FAA925"/>
<path d="M39.3872 14.7573L39.6636 14.7942L39.7875 15.104L39.6019 15.2829L39.3872 14.7573Z" fill="#FAA925"/>
<g opacity="0.82">
<path opacity="0.82" d="M42.424 23.4279L42.1515 22.7642C41.7578 23.1737 41.4137 23.3168 41.1208 23.1941C40.8273 23.0708 40.5548 22.6988 40.2998 22.0785L40.1996 21.8342L41.221 20.5151L41.298 20.7011C41.4852 21.1584 41.6708 21.2679 41.8541 21.0307C41.9307 20.9317 41.9725 20.81 41.9802 20.6637C41.9879 20.5189 41.9621 20.372 41.902 20.2272C41.8596 20.1232 41.7358 20.0478 41.5304 19.9994L40.1578 19.8046C39.6562 19.7353 39.2934 19.4254 39.0687 18.8762C38.9041 18.4761 38.8474 18.0122 38.8986 17.4828C38.9498 16.9539 39.1095 16.4564 39.376 15.9903L39.1552 15.4504L39.6628 14.7944L39.8775 15.32C40.2283 14.9628 40.5641 14.8412 40.8846 14.9557C41.2056 15.0701 41.4891 15.4273 41.7341 16.0266L40.6863 17.3804L40.5256 17.01C40.4881 16.9313 40.4325 16.8934 40.3593 16.8939C40.2861 16.8956 40.2195 16.9347 40.1589 17.0133C40.0906 17.1008 40.0449 17.2087 40.0229 17.3347C40.0009 17.4613 40.0108 17.5747 40.0521 17.6748C40.1126 17.8234 40.3004 17.9186 40.6131 17.9583L41.9378 18.125C42.1718 18.1553 42.3816 18.2554 42.5666 18.426C42.7521 18.5972 42.9003 18.819 43.0104 19.0892C43.1249 19.3676 43.1932 19.6753 43.2135 20.011C43.2345 20.3478 43.1987 20.7016 43.1089 21.0736C43.0164 21.4457 42.8678 21.7946 42.663 22.1171L42.9305 22.772L42.424 23.4279Z" fill="url(#paint24_linear_2_76324)"/>
</g>
<path d="M42.1476 23.3908L41.8751 22.7271C41.4814 23.1366 41.1373 23.2797 40.8444 23.1569C40.5509 23.0337 40.2778 22.6617 40.0235 22.0414L39.9233 21.7971L40.9446 20.478L41.0217 20.664C41.2089 21.1213 41.3944 21.2308 41.5778 20.9936C41.6543 20.8946 41.6961 20.7729 41.7038 20.6265C41.7115 20.4818 41.6857 20.3349 41.6257 20.1901C41.5833 20.0861 41.4594 20.0107 41.254 19.9623L39.8814 19.7675C39.3798 19.6981 39.017 19.3883 38.7924 18.8391C38.6277 18.439 38.571 17.9751 38.6222 17.4457C38.6734 16.9168 38.8331 16.4193 39.0996 15.9532L38.8788 15.4133L39.3864 14.7573L39.6012 15.2829C39.9519 14.9257 40.2877 14.8041 40.6082 14.9186C40.9292 15.033 41.2127 15.3902 41.4577 15.9895L40.41 17.3433L40.2492 16.9729C40.2118 16.8942 40.1562 16.8563 40.0829 16.8568C40.0102 16.8585 39.9431 16.8975 39.8825 16.9762C39.8142 17.0637 39.7685 17.1716 39.7465 17.2976C39.7245 17.4242 39.7344 17.5376 39.7757 17.6377C39.8363 17.7863 40.024 17.8815 40.3367 17.9211L41.6614 18.0879C41.8954 18.1182 42.1052 18.2183 42.2902 18.3889C42.4758 18.5601 42.6239 18.7819 42.734 19.0521C42.8485 19.3305 42.9168 19.6382 42.9371 19.9739C42.9581 20.3107 42.9223 20.6645 42.8325 21.0365C42.74 21.4086 42.5914 21.7575 42.3866 22.08L42.6541 22.7348L42.1476 23.3908Z" fill="#FFE169"/>
<path d="M42.6556 22.7344L42.9331 22.7602L42.4243 23.4278L42.1479 23.3909L42.6556 22.7344Z" fill="#FAA925"/>
<path d="M56.1226 13.1578L56.7607 13.9002L57.3955 13.8749L56.5625 12.9058L56.1226 13.1578Z" fill="url(#paint25_linear_2_76324)"/>
<path d="M63.5002 6.89404L64.1355 7.63368L64.0408 8.47403L63.0112 7.42236L63.5002 6.89404Z" fill="url(#paint26_linear_2_76324)"/>
<path d="M61.7725 7.0586C59.6274 7.46199 57.3029 9.45802 56.5805 11.5168C55.8576 13.575 57.0105 14.9167 59.1556 14.5133C61.3007 14.1099 63.6252 12.1139 64.3476 10.0551C65.0705 7.99636 63.9176 6.65466 61.7725 7.0586Z" fill="url(#paint27_linear_2_76324)"/>
<path d="M61.1373 6.3187C63.2824 5.91531 64.4353 7.25646 63.7124 9.31522C62.9895 11.3734 60.6649 13.3695 58.5203 13.7734C56.3753 14.1768 55.2223 12.8357 55.9452 10.7769C56.6682 8.71867 58.9927 6.72264 61.1373 6.3187Z" fill="url(#paint28_linear_2_76324)"/>
<path d="M61.0915 6.45058C63.1612 6.06095 64.2733 7.35532 63.5757 9.34144C62.8787 11.3276 60.6356 13.2532 58.566 13.6428C56.4963 14.0324 55.3842 12.7381 56.0818 10.7519C56.7788 8.7658 59.0219 6.83966 61.0915 6.45058Z" fill="url(#paint29_linear_2_76324)"/>
<path opacity="0.82" d="M60.9269 6.91864C62.7268 6.57964 63.6941 7.70561 63.0879 9.43308C62.4812 11.1606 60.5305 12.8357 58.7306 13.1742C56.9307 13.5132 55.9633 12.3872 56.5695 10.6598C57.1763 8.93228 59.127 7.25709 60.9269 6.91864Z" fill="url(#paint30_linear_2_76324)"/>
<path opacity="0.82" d="M56.6479 10.6445C57.2503 8.92973 59.1768 7.26664 60.9662 6.91113C60.953 6.91333 60.9403 6.91554 60.9271 6.91774C59.1272 7.25674 57.1765 8.93138 56.5697 10.6589C55.963 12.3863 56.9309 13.5123 58.7308 13.1733C58.744 13.1711 58.7567 13.1678 58.7699 13.1656C56.9953 13.4809 56.0456 12.3594 56.6479 10.6445Z" fill="white"/>
<path opacity="0.59" d="M60.8085 7.2558C62.4146 6.95368 63.2779 7.95802 62.7367 9.49949C62.1954 11.041 60.455 12.5351 58.849 12.8372C57.2429 13.1393 56.3796 12.135 56.9208 10.5935C57.462 9.05262 59.2024 7.55793 60.8085 7.2558Z" fill="url(#paint31_linear_2_76324)"/>
<path opacity="0.82" d="M60.2817 9.16158L60.3819 9.27825L60.6308 9.21166L60.4733 9.08398L60.2817 9.16158Z" fill="#FAA925"/>
<path d="M60.8137 7.7168L60.9139 7.83347L60.8512 8.00737L60.708 8.01287L60.8137 7.7168Z" fill="#FAA925"/>
<g opacity="0.82">
<path opacity="0.82" d="M58.8679 12.4163L59 12.0415C58.6862 12.0657 58.4913 11.9975 58.4159 11.839C58.3404 11.6799 58.3647 11.4257 58.4885 11.0757L58.5375 10.9375L59.446 10.7691L59.4091 10.8742C59.3177 11.1318 59.3541 11.2457 59.517 11.2154C59.5853 11.2028 59.6475 11.1681 59.7048 11.1103C59.7615 11.0531 59.805 10.9832 59.8336 10.9012C59.8545 10.8423 59.8314 10.7658 59.7642 10.6701L59.2693 10.0834C59.0876 9.86989 59.0523 9.60794 59.1619 9.29865C59.2417 9.07302 59.3893 8.86059 59.6057 8.66027C59.822 8.4605 60.0715 8.31412 60.3534 8.22001L60.4613 7.91568L60.9127 7.83203L60.8076 8.12811C61.084 8.10995 61.2679 8.18369 61.3576 8.34879C61.4479 8.51444 61.433 8.76649 61.313 9.10439L60.3809 9.27719L60.4514 9.06476C60.4651 9.01854 60.4558 8.98221 60.4255 8.9558C60.3946 8.92938 60.3528 8.92113 60.2989 8.93103C60.2383 8.94204 60.1799 8.96956 60.1243 9.01358C60.0687 9.05761 60.0307 9.10824 60.0109 9.16492C59.9812 9.24857 60.0236 9.35699 60.1381 9.48907L60.6237 10.046C60.709 10.1445 60.7586 10.2634 60.7723 10.4021C60.7856 10.5413 60.7652 10.6871 60.7112 10.8396C60.6556 10.997 60.5703 11.1489 60.4552 11.2952C60.3396 11.4422 60.1942 11.5748 60.0197 11.6953C59.8441 11.8147 59.6541 11.9039 59.4504 11.9617L59.3194 12.331L58.8679 12.4163Z" fill="url(#paint32_linear_2_76324)"/>
</g>
<path d="M58.7678 12.3005L58.8999 11.9257C58.5861 11.9499 58.3912 11.8817 58.3158 11.7232C58.2403 11.5641 58.2646 11.3099 58.3884 10.9599L58.4374 10.8223L59.3459 10.6539L59.309 10.759C59.2176 11.0165 59.254 11.1305 59.4169 11.1002C59.4852 11.0875 59.5474 11.0529 59.6047 10.9951C59.6614 10.9379 59.7049 10.868 59.7335 10.786C59.7545 10.7271 59.7313 10.6506 59.6642 10.5548L59.1692 9.96818C58.9875 9.75465 58.9522 9.4927 59.0618 9.18341C59.1416 8.95778 59.2892 8.74481 59.5056 8.54504C59.722 8.34527 59.9714 8.19888 60.2533 8.10478L60.3612 7.80045L60.8127 7.7168L60.7075 8.01287C60.9839 7.99471 61.1678 8.06845 61.2576 8.23355C61.3479 8.3992 61.333 8.65125 61.213 8.98915L60.2808 9.16195L60.3513 8.94953C60.3651 8.9033 60.3557 8.86698 60.3254 8.84056C60.2946 8.81415 60.2527 8.80589 60.1988 8.8158C60.1382 8.8268 60.0799 8.85432 60.0242 8.89835C59.9686 8.94237 59.9306 8.993 59.9108 9.04969C59.8811 9.13333 59.9235 9.24175 60.038 9.37383L60.5236 9.93076C60.609 10.0293 60.6585 10.1481 60.6723 10.2868C60.6855 10.426 60.6651 10.5719 60.6112 10.7243C60.5556 10.8817 60.4702 11.0336 60.3551 11.18C60.2395 11.3269 60.0942 11.4596 59.9196 11.5801C59.744 11.6995 59.554 11.7887 59.3503 11.8464L59.2193 12.2157L58.7678 12.3005Z" fill="#FFE169"/>
<path d="M59.2191 12.2168L59.3242 12.3296L58.8678 12.4177L58.7676 12.301L59.2191 12.2168Z" fill="#FAA925"/>
<path d="M50.4419 38.2312C50.8769 38.3468 51.2821 38.5207 51.6521 38.7508L49.4409 37.3755C49.8109 37.6061 50.1457 37.8922 50.4419 38.2312Z" fill="url(#paint33_linear_2_76324)"/>
<path d="M51.6812 40.7524L52.0837 40.9682L51.6526 38.7514C51.2826 38.5214 50.8773 38.3475 50.4424 38.2319C51.0111 38.8824 51.4345 39.7299 51.6812 40.7524Z" fill="url(#paint34_linear_2_76324)"/>
<path d="M51.6812 40.7524L52.0837 40.9682L51.6526 38.7514C51.2826 38.5214 50.8773 38.3475 50.4424 38.2319C51.0111 38.8824 51.4345 39.7299 51.6812 40.7524Z" fill="url(#paint35_linear_2_76324)"/>
<path d="M42.9496 38.1734C45.4531 36.8366 47.6785 36.7888 49.245 37.7909L49.441 37.3765C47.8195 36.3683 45.5318 36.4305 42.9611 37.8025C39.15 39.8376 35.7881 44.1813 34.2261 48.6648L34.4683 48.8046C35.9522 44.4256 39.2287 40.1595 42.9496 38.1734Z" fill="url(#paint36_linear_2_76324)"/>
<path d="M49.6564 38.0907C49.9279 38.1177 50.1899 38.165 50.4421 38.2322C50.1459 37.8932 49.8111 37.607 49.4411 37.377L49.2451 37.7914C49.3877 37.8822 49.5248 37.9823 49.6564 38.0907Z" fill="url(#paint37_linear_2_76324)"/>
<path d="M49.6564 38.0907C49.9279 38.1177 50.1899 38.165 50.4421 38.2322C50.1459 37.8932 49.8111 37.607 49.4411 37.377L49.2451 37.7914C49.3877 37.8822 49.5248 37.9823 49.6564 38.0907Z" fill="url(#paint38_linear_2_76324)"/>
<path d="M51.6811 40.7531L51.2181 40.5049C51.4978 41.3733 51.6321 42.3936 51.5936 43.5498C51.4587 47.6255 49.2255 52.2714 46.1152 55.526L46.3586 55.6663C49.5217 52.3 51.783 47.549 51.9212 43.3748C51.9531 42.4057 51.8677 41.529 51.6811 40.7531Z" fill="url(#paint39_linear_2_76324)"/>
<path d="M51.6811 40.7531L51.2181 40.5049C51.4978 41.3733 51.6321 42.3936 51.5936 43.5498C51.4587 47.6255 49.2255 52.2714 46.1152 55.526L46.3586 55.6663C49.5217 52.3 51.783 47.549 51.9212 43.3748C51.9531 42.4057 51.8677 41.529 51.6811 40.7531Z" fill="url(#paint40_linear_2_76324)"/>
<path d="M49.6562 38.0898C50.3527 38.6644 50.8874 39.4778 51.2183 40.5041L51.6813 40.7523C51.4352 39.7298 51.0112 38.8829 50.4419 38.2313C50.1898 38.1641 49.9277 38.1168 49.6562 38.0898Z" fill="url(#paint41_linear_2_76324)"/>
<path d="M49.6562 38.0898C50.3527 38.6644 50.8874 39.4778 51.2183 40.5041L51.6813 40.7523C51.4352 39.7298 51.0112 38.8829 50.4419 38.2313C50.1898 38.1641 49.9277 38.1168 49.6562 38.0898Z" fill="url(#paint42_linear_2_76324)"/>
<path d="M49.6562 38.0898C50.3527 38.6644 50.8874 39.4778 51.2183 40.5041L51.6813 40.7523C51.4352 39.7298 51.0112 38.8829 50.4419 38.2313C50.1898 38.1641 49.9277 38.1168 49.6562 38.0898Z" fill="url(#paint43_linear_2_76324)"/>
<path d="M42.9053 39.4973C42.9367 39.4808 42.9675 39.4648 42.9989 39.4489C44.2757 38.7835 45.4677 38.5051 46.5067 38.5717C47.4333 38.2261 48.3099 38.0604 49.1165 38.0626L49.2453 37.7908C47.6783 36.7886 45.4529 36.837 42.9499 38.1732C39.2296 40.1594 35.9531 44.426 34.4692 48.805L35.3496 49.3129C36.5378 45.3093 39.5088 41.3106 42.9053 39.4973Z" fill="url(#paint44_linear_2_76324)"/>
<path d="M42.9053 39.4973C42.9367 39.4808 42.9675 39.4648 42.9989 39.4489C44.2757 38.7835 45.4677 38.5051 46.5067 38.5717C47.4333 38.2261 48.3099 38.0604 49.1165 38.0626L49.2453 37.7908C47.6783 36.7886 45.4529 36.837 42.9499 38.1732C39.2296 40.1594 35.9531 44.426 34.4692 48.805L35.3496 49.3129C36.5378 45.3093 39.5088 41.3106 42.9053 39.4973Z" fill="url(#paint45_linear_2_76324)"/>
<path d="M49.6563 38.0899C49.5247 37.9815 49.3876 37.8819 49.245 37.7905L49.1162 38.0624C49.3001 38.0629 49.4801 38.0723 49.6563 38.0899Z" fill="url(#paint46_linear_2_76324)"/>
<path d="M49.6563 38.0899C49.5247 37.9815 49.3876 37.8819 49.245 37.7905L49.1162 38.0624C49.3001 38.0629 49.4801 38.0723 49.6563 38.0899Z" fill="url(#paint47_linear_2_76324)"/>
<path d="M49.6563 38.0899C49.5247 37.9815 49.3876 37.8819 49.245 37.7905L49.1162 38.0624C49.3001 38.0629 49.4801 38.0723 49.6563 38.0899Z" fill="url(#paint48_linear_2_76324)"/>
<path d="M51.218 40.5043L48.6187 39.1125L49.1159 38.0625C48.3093 38.0609 47.4327 38.226 46.5061 38.5716C48.9402 38.7268 50.5364 40.774 50.4241 44.1739C50.3007 47.9018 48.1595 52.1773 45.2354 55.0181L46.1152 55.5255C49.2254 52.2708 51.4592 47.6255 51.5935 43.5493C51.6315 42.393 51.4977 41.3727 51.218 40.5043Z" fill="url(#paint49_linear_2_76324)"/>
<path d="M51.218 40.5043L48.6187 39.1125L49.1159 38.0625C48.3093 38.0609 47.4327 38.226 46.5061 38.5716C48.9402 38.7268 50.5364 40.774 50.4241 44.1739C50.3007 47.9018 48.1595 52.1773 45.2354 55.0181L46.1152 55.5255C49.2254 52.2708 51.4592 47.6255 51.5935 43.5493C51.6315 42.393 51.4977 41.3727 51.218 40.5043Z" fill="url(#paint50_linear_2_76324)"/>
<path d="M51.218 40.5043L48.6187 39.1125L49.1159 38.0625C48.3093 38.0609 47.4327 38.226 46.5061 38.5716C48.9402 38.7268 50.5364 40.774 50.4241 44.1739C50.3007 47.9018 48.1595 52.1773 45.2354 55.0181L46.1152 55.5255C49.2254 52.2708 51.4592 47.6255 51.5935 43.5493C51.6315 42.393 51.4977 41.3727 51.218 40.5043Z" fill="url(#paint51_linear_2_76324)"/>
<path d="M49.6564 38.0905C49.4803 38.0729 49.3002 38.0635 49.1163 38.063L48.6191 39.113L51.2185 40.5048C50.8876 39.4784 50.3524 38.6645 49.6564 38.0905Z" fill="url(#paint52_linear_2_76324)"/>
<path d="M49.6564 38.0905C49.4803 38.0729 49.3002 38.0635 49.1163 38.063L48.6191 39.113L51.2185 40.5048C50.8876 39.4784 50.3524 38.6645 49.6564 38.0905Z" fill="url(#paint53_linear_2_76324)"/>
<path d="M49.6564 38.0905C49.4803 38.0729 49.3002 38.0635 49.1163 38.063L48.6191 39.113L51.2185 40.5048C50.8876 39.4784 50.3524 38.6645 49.6564 38.0905Z" fill="url(#paint54_linear_2_76324)"/>
<path d="M49.6564 38.0905C49.4803 38.0729 49.3002 38.0635 49.1163 38.063L48.6191 39.113L51.2185 40.5048C50.8876 39.4784 50.3524 38.6645 49.6564 38.0905Z" fill="url(#paint55_linear_2_76324)"/>
<path d="M42.8739 40.451C43.1844 40.2853 43.4894 40.1455 43.7873 40.03C44.2404 39.7135 44.7024 39.4279 45.172 39.177C45.6263 38.9343 46.0717 38.7334 46.5061 38.5716C45.4671 38.505 44.2757 38.7835 42.9983 39.4488C39.5908 41.3128 36.6259 45.3654 35.4834 49.3905L35.9987 49.6877C36.9557 45.9597 39.7075 42.1416 42.8739 40.451Z" fill="url(#paint56_linear_2_76324)"/>
<path d="M42.8739 40.451C43.1844 40.2853 43.4894 40.1455 43.7873 40.03C44.2404 39.7135 44.7024 39.4279 45.172 39.177C45.6263 38.9343 46.0717 38.7334 46.5061 38.5716C45.4671 38.505 44.2757 38.7835 42.9983 39.4488C39.5908 41.3128 36.6259 45.3654 35.4834 49.3905L35.9987 49.6877C36.9557 45.9597 39.7075 42.1416 42.8739 40.451Z" fill="url(#paint57_linear_2_76324)"/>
<path opacity="0.82" d="M42.8739 40.451C43.1844 40.2853 43.4894 40.1455 43.7873 40.03C44.2404 39.7135 44.7024 39.4279 45.172 39.177C45.6263 38.9343 46.0717 38.7334 46.5061 38.5716C45.4671 38.505 44.2757 38.7835 42.9983 39.4488C39.5908 41.3128 36.6259 45.3654 35.4834 49.3905L35.9987 49.6877C36.9557 45.9597 39.7075 42.1416 42.8739 40.451Z" fill="url(#paint58_linear_2_76324)"/>
<path d="M50.4243 44.1736C50.5367 40.7742 48.9405 38.727 46.5064 38.5713C46.072 38.7331 45.6266 38.934 45.1723 39.1766C44.7032 39.427 44.2407 39.7132 43.7876 40.0297C47.1869 38.7138 49.7146 40.6157 49.5825 44.6232C49.4674 48.1035 47.3813 52.1192 44.5859 54.643L45.2362 55.0183C48.1598 52.177 50.301 47.9015 50.4243 44.1736Z" fill="url(#paint59_linear_2_76324)"/>
<path d="M50.4243 44.1736C50.5367 40.7742 48.9405 38.727 46.5064 38.5713C46.072 38.7331 45.6266 38.934 45.1723 39.1766C44.7032 39.427 44.2407 39.7132 43.7876 40.0297C47.1869 38.7138 49.7146 40.6157 49.5825 44.6232C49.4674 48.1035 47.3813 52.1192 44.5859 54.643L45.2362 55.0183C48.1598 52.177 50.301 47.9015 50.4243 44.1736Z" fill="url(#paint60_linear_2_76324)"/>
<path d="M50.4243 44.1736C50.5367 40.7742 48.9405 38.727 46.5064 38.5713C46.072 38.7331 45.6266 38.934 45.1723 39.1766C44.7032 39.427 44.2407 39.7132 43.7876 40.0297C47.1869 38.7138 49.7146 40.6157 49.5825 44.6232C49.4674 48.1035 47.3813 52.1192 44.5859 54.643L45.2362 55.0183C48.1598 52.177 50.301 47.9015 50.4243 44.1736Z" fill="url(#paint61_linear_2_76324)"/>
<path opacity="0.82" d="M50.4243 44.1736C50.5367 40.7742 48.9405 38.727 46.5064 38.5713C46.072 38.7331 45.6266 38.934 45.1723 39.1766C44.7032 39.427 44.2407 39.7132 43.7876 40.0297C47.1869 38.7138 49.7146 40.6157 49.5825 44.6232C49.4674 48.1035 47.3813 52.1192 44.5859 54.643L45.2362 55.0183C48.1598 52.177 50.301 47.9015 50.4243 44.1736Z" fill="url(#paint62_linear_2_76324)"/>
<path d="M42.9053 39.4976C42.9367 39.4811 42.9675 39.4652 42.9983 39.4492C42.9675 39.4652 42.9367 39.4811 42.9053 39.4976Z" fill="url(#paint63_linear_2_76324)"/>
<path d="M42.9053 39.4976C42.9367 39.4811 42.9675 39.4652 42.9983 39.4492C42.9675 39.4652 42.9367 39.4811 42.9053 39.4976Z" fill="url(#paint64_linear_2_76324)"/>
<path opacity="0.82" d="M42.9053 39.4976C42.9367 39.4811 42.9675 39.4652 42.9983 39.4492C42.9675 39.4652 42.9367 39.4811 42.9053 39.4976Z" fill="white"/>
<path d="M42.9985 39.4492C42.9676 39.4652 42.9363 39.4811 42.9054 39.4976C39.5089 41.311 36.5379 45.3096 35.3486 49.3127L35.4835 49.3908C36.626 45.3657 39.5909 41.3132 42.9985 39.4492Z" fill="url(#paint65_linear_2_76324)"/>
<path d="M42.9985 39.4492C42.9676 39.4652 42.9363 39.4811 42.9054 39.4976C39.5089 41.311 36.5379 45.3096 35.3486 49.3127L35.4835 49.3908C36.626 45.3657 39.5909 41.3132 42.9985 39.4492Z" fill="url(#paint66_linear_2_76324)"/>
<path opacity="0.82" d="M42.9985 39.4492C42.9676 39.4652 42.9363 39.4811 42.9054 39.4976C39.5089 41.311 36.5379 45.3096 35.3486 49.3127L35.4835 49.3908C36.626 45.3657 39.5909 41.3132 42.9985 39.4492Z" fill="url(#paint67_linear_2_76324)"/>
<path opacity="0.82" d="M42.9985 39.4492C42.9676 39.4652 42.9363 39.4811 42.9054 39.4976C39.5089 41.311 36.5379 45.3096 35.3486 49.3127L35.4835 49.3908C36.626 45.3657 39.5909 41.3132 42.9985 39.4492Z" fill="white"/>
<path d="M43.7876 40.0298C43.4892 40.1454 43.1842 40.2851 42.8742 40.4508C39.7078 42.1414 36.9565 45.9595 35.999 49.688L36.4654 49.9571C37.8451 46.0542 40.5827 42.268 43.7876 40.0298Z" fill="url(#paint68_linear_2_76324)"/>
<path d="M43.7876 40.0298C43.4892 40.1454 43.1842 40.2851 42.8742 40.4508C39.7078 42.1414 36.9565 45.9595 35.999 49.688L36.4654 49.9571C37.8451 46.0542 40.5827 42.268 43.7876 40.0298Z" fill="url(#paint69_linear_2_76324)"/>
<path opacity="0.82" d="M43.7876 40.0298C43.4892 40.1454 43.1842 40.2851 42.8742 40.4508C39.7078 42.1414 36.9565 45.9595 35.999 49.688L36.4654 49.9571C37.8451 46.0542 40.5827 42.268 43.7876 40.0298Z" fill="url(#paint70_linear_2_76324)"/>
<path opacity="0.59" d="M43.7876 40.0298C43.4892 40.1454 43.1842 40.2851 42.8742 40.4508C39.7078 42.1414 36.9565 45.9595 35.999 49.688L36.4654 49.9571C37.8451 46.0542 40.5827 42.268 43.7876 40.0298Z" fill="url(#paint71_linear_2_76324)"/>
<path d="M49.5825 44.6234C49.7152 40.6159 47.1869 38.714 43.7876 40.0298C40.5826 42.268 37.8445 46.0542 36.4653 49.9572L39.6758 51.8096L39.689 51.4342L41.8688 50.2786L41.8594 50.5763C41.8578 50.6148 41.8578 50.6511 41.8572 50.6874L42.2184 50.4959L42.209 50.7937C42.1991 51.0666 42.2184 51.2735 42.2674 51.4155C42.3109 51.4045 42.3577 51.3858 42.4084 51.3588C42.5719 51.2719 42.7024 51.1338 42.802 50.9411C42.9006 50.7507 42.9551 50.5367 42.9622 50.3055C42.9683 50.1393 42.8477 49.9621 42.6005 49.7723L40.87 48.6743C40.2368 48.2759 39.9362 47.6375 39.9682 46.7609C39.9902 46.1219 40.1967 45.4621 40.5876 44.7797C40.979 44.0984 41.4966 43.5255 42.1402 43.0594L42.1722 42.1976L43.2557 41.623L43.6053 41.8404L43.5866 42.3461C44.0959 42.2212 44.4984 42.2977 44.7935 42.5751C44.9273 42.6246 45.0473 42.6995 45.1525 42.8013C45.5153 43.1507 45.6794 43.8051 45.6441 44.761L43.4082 45.9469L43.0586 45.7296L43.0674 45.1324C43.0669 45.1132 43.0652 45.095 43.0625 45.0774C43.0179 45.0873 42.9705 45.1055 42.921 45.1313C42.775 45.2078 42.6484 45.3251 42.5421 45.4814C42.4359 45.6382 42.3797 45.7972 42.3742 45.9574C42.366 46.1742 42.5284 46.3949 42.8593 46.6178L44.2903 47.4939C44.3095 47.506 44.3282 47.5192 44.347 47.5319L44.6399 47.7113C44.9366 47.8945 45.158 48.157 45.3033 48.4993C45.4487 48.8433 45.5131 49.2313 45.4977 49.6627C45.4823 50.108 45.3865 50.5631 45.2097 51.0281C45.0324 51.4942 44.7693 51.9493 44.4213 52.3957C44.0706 52.8403 43.6576 53.22 43.1852 53.5299L43.1742 53.8282L44.5854 54.6421C47.3812 52.1194 49.4674 48.1037 49.5825 44.6234Z" fill="url(#paint72_linear_2_76324)"/>
<path d="M49.5825 44.6234C49.7152 40.6159 47.1869 38.714 43.7876 40.0298C40.5826 42.268 37.8445 46.0542 36.4653 49.9572L39.6758 51.8096L39.689 51.4342L41.8688 50.2786L41.8594 50.5763C41.8578 50.6148 41.8578 50.6511 41.8572 50.6874L42.2184 50.4959L42.209 50.7937C42.1991 51.0666 42.2184 51.2735 42.2674 51.4155C42.3109 51.4045 42.3577 51.3858 42.4084 51.3588C42.5719 51.2719 42.7024 51.1338 42.802 50.9411C42.9006 50.7507 42.9551 50.5367 42.9622 50.3055C42.9683 50.1393 42.8477 49.9621 42.6005 49.7723L40.87 48.6743C40.2368 48.2759 39.9362 47.6375 39.9682 46.7609C39.9902 46.1219 40.1967 45.4621 40.5876 44.7797C40.979 44.0984 41.4966 43.5255 42.1402 43.0594L42.1722 42.1976L43.2557 41.623L43.6053 41.8404L43.5866 42.3461C44.0959 42.2212 44.4984 42.2977 44.7935 42.5751C44.9273 42.6246 45.0473 42.6995 45.1525 42.8013C45.5153 43.1507 45.6794 43.8051 45.6441 44.761L43.4082 45.9469L43.0586 45.7296L43.0674 45.1324C43.0669 45.1132 43.0652 45.095 43.0625 45.0774C43.0179 45.0873 42.9705 45.1055 42.921 45.1313C42.775 45.2078 42.6484 45.3251 42.5421 45.4814C42.4359 45.6382 42.3797 45.7972 42.3742 45.9574C42.366 46.1742 42.5284 46.3949 42.8593 46.6178L44.2903 47.4939C44.3095 47.506 44.3282 47.5192 44.347 47.5319L44.6399 47.7113C44.9366 47.8945 45.158 48.157 45.3033 48.4993C45.4487 48.8433 45.5131 49.2313 45.4977 49.6627C45.4823 50.108 45.3865 50.5631 45.2097 51.0281C45.0324 51.4942 44.7693 51.9493 44.4213 52.3957C44.0706 52.8403 43.6576 53.22 43.1852 53.5299L43.1742 53.8282L44.5854 54.6421C47.3812 52.1194 49.4674 48.1037 49.5825 44.6234Z" fill="url(#paint73_linear_2_76324)"/>
<path d="M49.5825 44.6234C49.7152 40.6159 47.1869 38.714 43.7876 40.0298C40.5826 42.268 37.8445 46.0542 36.4653 49.9572L39.6758 51.8096L39.689 51.4342L41.8688 50.2786L41.8594 50.5763C41.8578 50.6148 41.8578 50.6511 41.8572 50.6874L42.2184 50.4959L42.209 50.7937C42.1991 51.0666 42.2184 51.2735 42.2674 51.4155C42.3109 51.4045 42.3577 51.3858 42.4084 51.3588C42.5719 51.2719 42.7024 51.1338 42.802 50.9411C42.9006 50.7507 42.9551 50.5367 42.9622 50.3055C42.9683 50.1393 42.8477 49.9621 42.6005 49.7723L40.87 48.6743C40.2368 48.2759 39.9362 47.6375 39.9682 46.7609C39.9902 46.1219 40.1967 45.4621 40.5876 44.7797C40.979 44.0984 41.4966 43.5255 42.1402 43.0594L42.1722 42.1976L43.2557 41.623L43.6053 41.8404L43.5866 42.3461C44.0959 42.2212 44.4984 42.2977 44.7935 42.5751C44.9273 42.6246 45.0473 42.6995 45.1525 42.8013C45.5153 43.1507 45.6794 43.8051 45.6441 44.761L43.4082 45.9469L43.0586 45.7296L43.0674 45.1324C43.0669 45.1132 43.0652 45.095 43.0625 45.0774C43.0179 45.0873 42.9705 45.1055 42.921 45.1313C42.775 45.2078 42.6484 45.3251 42.5421 45.4814C42.4359 45.6382 42.3797 45.7972 42.3742 45.9574C42.366 46.1742 42.5284 46.3949 42.8593 46.6178L44.2903 47.4939C44.3095 47.506 44.3282 47.5192 44.347 47.5319L44.6399 47.7113C44.9366 47.8945 45.158 48.157 45.3033 48.4993C45.4487 48.8433 45.5131 49.2313 45.4977 49.6627C45.4823 50.108 45.3865 50.5631 45.2097 51.0281C45.0324 51.4942 44.7693 51.9493 44.4213 52.3957C44.0706 52.8403 43.6576 53.22 43.1852 53.5299L43.1742 53.8282L44.5854 54.6421C47.3812 52.1194 49.4674 48.1037 49.5825 44.6234Z" fill="url(#paint74_linear_2_76324)"/>
<path opacity="0.82" d="M49.5825 44.6234C49.7152 40.6159 47.1869 38.714 43.7876 40.0298C40.5826 42.268 37.8445 46.0542 36.4653 49.9572L39.6758 51.8096L39.689 51.4342L41.8688 50.2786L41.8594 50.5763C41.8578 50.6148 41.8578 50.6511 41.8572 50.6874L42.2184 50.4959L42.209 50.7937C42.1991 51.0666 42.2184 51.2735 42.2674 51.4155C42.3109 51.4045 42.3577 51.3858 42.4084 51.3588C42.5719 51.2719 42.7024 51.1338 42.802 50.9411C42.9006 50.7507 42.9551 50.5367 42.9622 50.3055C42.9683 50.1393 42.8477 49.9621 42.6005 49.7723L40.87 48.6743C40.2368 48.2759 39.9362 47.6375 39.9682 46.7609C39.9902 46.1219 40.1967 45.4621 40.5876 44.7797C40.979 44.0984 41.4966 43.5255 42.1402 43.0594L42.1722 42.1976L43.2557 41.623L43.6053 41.8404L43.5866 42.3461C44.0959 42.2212 44.4984 42.2977 44.7935 42.5751C44.9273 42.6246 45.0473 42.6995 45.1525 42.8013C45.5153 43.1507 45.6794 43.8051 45.6441 44.761L43.4082 45.9469L43.0586 45.7296L43.0674 45.1324C43.0669 45.1132 43.0652 45.095 43.0625 45.0774C43.0179 45.0873 42.9705 45.1055 42.921 45.1313C42.775 45.2078 42.6484 45.3251 42.5421 45.4814C42.4359 45.6382 42.3797 45.7972 42.3742 45.9574C42.366 46.1742 42.5284 46.3949 42.8593 46.6178L44.2903 47.4939C44.3095 47.506 44.3282 47.5192 44.347 47.5319L44.6399 47.7113C44.9366 47.8945 45.158 48.157 45.3033 48.4993C45.4487 48.8433 45.5131 49.2313 45.4977 49.6627C45.4823 50.108 45.3865 50.5631 45.2097 51.0281C45.0324 51.4942 44.7693 51.9493 44.4213 52.3957C44.0706 52.8403 43.6576 53.22 43.1852 53.5299L43.1742 53.8282L44.5854 54.6421C47.3812 52.1194 49.4674 48.1037 49.5825 44.6234Z" fill="url(#paint75_linear_2_76324)"/>
<path opacity="0.59" d="M49.5825 44.6234C49.7152 40.6159 47.1869 38.714 43.7876 40.0298C40.5826 42.268 37.8445 46.0542 36.4653 49.9572L39.6758 51.8096L39.689 51.4342L41.8688 50.2786L41.8594 50.5763C41.8578 50.6148 41.8578 50.6511 41.8572 50.6874L42.2184 50.4959L42.209 50.7937C42.1991 51.0666 42.2184 51.2735 42.2674 51.4155C42.3109 51.4045 42.3577 51.3858 42.4084 51.3588C42.5719 51.2719 42.7024 51.1338 42.802 50.9411C42.9006 50.7507 42.9551 50.5367 42.9622 50.3055C42.9683 50.1393 42.8477 49.9621 42.6005 49.7723L40.87 48.6743C40.2368 48.2759 39.9362 47.6375 39.9682 46.7609C39.9902 46.1219 40.1967 45.4621 40.5876 44.7797C40.979 44.0984 41.4966 43.5255 42.1402 43.0594L42.1722 42.1976L43.2557 41.623L43.6053 41.8404L43.5866 42.3461C44.0959 42.2212 44.4984 42.2977 44.7935 42.5751C44.9273 42.6246 45.0473 42.6995 45.1525 42.8013C45.5153 43.1507 45.6794 43.8051 45.6441 44.761L43.4082 45.9469L43.0586 45.7296L43.0674 45.1324C43.0669 45.1132 43.0652 45.095 43.0625 45.0774C43.0179 45.0873 42.9705 45.1055 42.921 45.1313C42.775 45.2078 42.6484 45.3251 42.5421 45.4814C42.4359 45.6382 42.3797 45.7972 42.3742 45.9574C42.366 46.1742 42.5284 46.3949 42.8593 46.6178L44.2903 47.4939C44.3095 47.506 44.3282 47.5192 44.347 47.5319L44.6399 47.7113C44.9366 47.8945 45.158 48.157 45.3033 48.4993C45.4487 48.8433 45.5131 49.2313 45.4977 49.6627C45.4823 50.108 45.3865 50.5631 45.2097 51.0281C45.0324 51.4942 44.7693 51.9493 44.4213 52.3957C44.0706 52.8403 43.6576 53.22 43.1852 53.5299L43.1742 53.8282L44.5854 54.6421C47.3812 52.1194 49.4674 48.1037 49.5825 44.6234Z" fill="url(#paint76_linear_2_76324)"/>
<path d="M43.0586 45.7298L43.4082 45.9472L43.4143 45.541L43.0586 45.7298Z" fill="url(#paint77_linear_2_76324)"/>
<path d="M43.0586 45.7298L43.4082 45.9472L43.4143 45.541L43.0586 45.7298Z" fill="url(#paint78_linear_2_76324)"/>
<path d="M43.0586 45.7298L43.4082 45.9472L43.4143 45.541L43.0586 45.7298Z" fill="url(#paint79_linear_2_76324)"/>
<path opacity="0.82" d="M43.0586 45.7298L43.4082 45.9472L43.4143 45.541L43.0586 45.7298Z" fill="url(#paint80_linear_2_76324)"/>
<path opacity="0.59" d="M43.0586 45.7298L43.4082 45.9472L43.4143 45.541L43.0586 45.7298Z" fill="url(#paint81_linear_2_76324)"/>
<path opacity="0.82" d="M43.0586 45.7298L43.4082 45.9472L43.4143 45.541L43.0586 45.7298Z" fill="#FAA925"/>
<path d="M43.6047 41.8414L43.2557 41.624L43.2402 42.0346L43.6047 41.8414Z" fill="#FAA925"/>
<path d="M42.9144 44.8756C42.8153 44.8333 42.7019 44.8454 42.5714 44.9147C42.4255 44.9912 42.2989 45.1084 42.1926 45.2647C42.0864 45.4216 42.0302 45.5806 42.0247 45.7407C42.0159 45.9779 42.2108 46.2201 42.6078 46.4644L42.8594 46.6185C42.5285 46.3956 42.3661 46.1749 42.3743 45.9581C42.3798 45.7974 42.436 45.6389 42.5422 45.4821C42.6485 45.3263 42.7751 45.2086 42.9211 45.1321C42.9706 45.1057 43.0174 45.0881 43.0626 45.0782C43.0482 44.9791 42.9987 44.912 42.9144 44.8756Z" fill="url(#paint82_linear_2_76324)"/>
<path d="M42.9144 44.8756C42.8153 44.8333 42.7019 44.8454 42.5714 44.9147C42.4255 44.9912 42.2989 45.1084 42.1926 45.2647C42.0864 45.4216 42.0302 45.5806 42.0247 45.7407C42.0159 45.9779 42.2108 46.2201 42.6078 46.4644L42.8594 46.6185C42.5285 46.3956 42.3661 46.1749 42.3743 45.9581C42.3798 45.7974 42.436 45.6389 42.5422 45.4821C42.6485 45.3263 42.7751 45.2086 42.9211 45.1321C42.9706 45.1057 43.0174 45.0881 43.0626 45.0782C43.0482 44.9791 42.9987 44.912 42.9144 44.8756Z" fill="url(#paint83_linear_2_76324)"/>
<path d="M42.9144 44.8756C42.8153 44.8333 42.7019 44.8454 42.5714 44.9147C42.4255 44.9912 42.2989 45.1084 42.1926 45.2647C42.0864 45.4216 42.0302 45.5806 42.0247 45.7407C42.0159 45.9779 42.2108 46.2201 42.6078 46.4644L42.8594 46.6185C42.5285 46.3956 42.3661 46.1749 42.3743 45.9581C42.3798 45.7974 42.436 45.6389 42.5422 45.4821C42.6485 45.3263 42.7751 45.2086 42.9211 45.1321C42.9706 45.1057 43.0174 45.0881 43.0626 45.0782C43.0482 44.9791 42.9987 44.912 42.9144 44.8756Z" fill="url(#paint84_linear_2_76324)"/>
<path opacity="0.82" d="M42.9144 44.8756C42.8153 44.8333 42.7019 44.8454 42.5714 44.9147C42.4255 44.9912 42.2989 45.1084 42.1926 45.2647C42.0864 45.4216 42.0302 45.5806 42.0247 45.7407C42.0159 45.9779 42.2108 46.2201 42.6078 46.4644L42.8594 46.6185C42.5285 46.3956 42.3661 46.1749 42.3743 45.9581C42.3798 45.7974 42.436 45.6389 42.5422 45.4821C42.6485 45.3263 42.7751 45.2086 42.9211 45.1321C42.9706 45.1057 43.0174 45.0881 43.0626 45.0782C43.0482 44.9791 42.9987 44.912 42.9144 44.8756Z" fill="url(#paint85_linear_2_76324)"/>
<path opacity="0.59" d="M42.9144 44.8756C42.8153 44.8333 42.7019 44.8454 42.5714 44.9147C42.4255 44.9912 42.2989 45.1084 42.1926 45.2647C42.0864 45.4216 42.0302 45.5806 42.0247 45.7407C42.0159 45.9779 42.2108 46.2201 42.6078 46.4644L42.8594 46.6185C42.5285 46.3956 42.3661 46.1749 42.3743 45.9581C42.3798 45.7974 42.436 45.6389 42.5422 45.4821C42.6485 45.3263 42.7751 45.2086 42.9211 45.1321C42.9706 45.1057 43.0174 45.0881 43.0626 45.0782C43.0482 44.9791 42.9987 44.912 42.9144 44.8756Z" fill="url(#paint86_linear_2_76324)"/>
<path d="M42.9144 44.8756C42.8153 44.8333 42.7019 44.8454 42.5714 44.9147C42.4255 44.9912 42.2989 45.1084 42.1926 45.2647C42.0864 45.4216 42.0302 45.5806 42.0247 45.7407C42.0159 45.9779 42.2108 46.2201 42.6078 46.4644L42.8594 46.6185C42.5285 46.3956 42.3661 46.1749 42.3743 45.9581C42.3798 45.7974 42.436 45.6389 42.5422 45.4821C42.6485 45.3263 42.7751 45.2086 42.9211 45.1321C42.9706 45.1057 43.0174 45.0881 43.0626 45.0782C43.0482 44.9791 42.9987 44.912 42.9144 44.8756Z" fill="url(#paint87_linear_2_76324)"/>
<path d="M43.3774 42.4077C43.449 42.384 43.5189 42.3631 43.5867 42.3466L43.6054 41.8408L43.5839 42.3339L43.3774 42.4077Z" fill="url(#paint88_linear_2_76324)"/>
<path d="M43.3774 42.4077C43.449 42.384 43.5189 42.3631 43.5867 42.3466L43.6054 41.8408L43.5839 42.3339L43.3774 42.4077Z" fill="url(#paint89_linear_2_76324)"/>
<path d="M43.3774 42.4077C43.449 42.384 43.5189 42.3631 43.5867 42.3466L43.6054 41.8408L43.5839 42.3339L43.3774 42.4077Z" fill="url(#paint90_linear_2_76324)"/>
<path opacity="0.82" d="M43.3774 42.4077C43.449 42.384 43.5189 42.3631 43.5867 42.3466L43.6054 41.8408L43.5839 42.3339L43.3774 42.4077Z" fill="url(#paint91_linear_2_76324)"/>
<path opacity="0.59" d="M43.3774 42.4077C43.449 42.384 43.5189 42.3631 43.5867 42.3466L43.6054 41.8408L43.5839 42.3339L43.3774 42.4077Z" fill="url(#paint92_linear_2_76324)"/>
<path d="M43.3774 42.4077C43.449 42.384 43.5189 42.3631 43.5867 42.3466L43.6054 41.8408L43.5839 42.3339L43.3774 42.4077Z" fill="url(#paint93_linear_2_76324)"/>
<path d="M44.4219 52.396C44.7699 51.9497 45.0331 51.4951 45.2104 51.0285C45.3871 50.5634 45.4829 50.1083 45.4983 49.6631C45.5143 49.2322 45.4499 48.8437 45.304 48.4997C45.1581 48.1574 44.9373 47.8943 44.6405 47.7116L44.3476 47.5322C44.6158 47.7133 44.8184 47.9626 44.9544 48.2823C45.0997 48.6263 45.1641 49.0143 45.1487 49.4457C45.1333 49.8909 45.0375 50.3461 44.8608 50.8111C44.6835 51.2772 44.4203 51.7323 44.0723 52.1787C43.7216 52.6233 43.3087 53.003 42.8363 53.3129L42.8247 53.6266L43.1749 53.8285L43.1859 53.5303C43.6583 53.2199 44.0712 52.8407 44.4219 52.396Z" fill="url(#paint94_linear_2_76324)"/>
<path d="M44.4219 52.396C44.7699 51.9497 45.0331 51.4951 45.2104 51.0285C45.3871 50.5634 45.4829 50.1083 45.4983 49.6631C45.5143 49.2322 45.4499 48.8437 45.304 48.4997C45.1581 48.1574 44.9373 47.8943 44.6405 47.7116L44.3476 47.5322C44.6158 47.7133 44.8184 47.9626 44.9544 48.2823C45.0997 48.6263 45.1641 49.0143 45.1487 49.4457C45.1333 49.8909 45.0375 50.3461 44.8608 50.8111C44.6835 51.2772 44.4203 51.7323 44.0723 52.1787C43.7216 52.6233 43.3087 53.003 42.8363 53.3129L42.8247 53.6266L43.1749 53.8285L43.1859 53.5303C43.6583 53.2199 44.0712 52.8407 44.4219 52.396Z" fill="url(#paint95_linear_2_76324)"/>
<path d="M44.4219 52.396C44.7699 51.9497 45.0331 51.4951 45.2104 51.0285C45.3871 50.5634 45.4829 50.1083 45.4983 49.6631C45.5143 49.2322 45.4499 48.8437 45.304 48.4997C45.1581 48.1574 44.9373 47.8943 44.6405 47.7116L44.3476 47.5322C44.6158 47.7133 44.8184 47.9626 44.9544 48.2823C45.0997 48.6263 45.1641 49.0143 45.1487 49.4457C45.1333 49.8909 45.0375 50.3461 44.8608 50.8111C44.6835 51.2772 44.4203 51.7323 44.0723 52.1787C43.7216 52.6233 43.3087 53.003 42.8363 53.3129L42.8247 53.6266L43.1749 53.8285L43.1859 53.5303C43.6583 53.2199 44.0712 52.8407 44.4219 52.396Z" fill="url(#paint96_linear_2_76324)"/>
<path opacity="0.82" d="M44.4219 52.396C44.7699 51.9497 45.0331 51.4951 45.2104 51.0285C45.3871 50.5634 45.4829 50.1083 45.4983 49.6631C45.5143 49.2322 45.4499 48.8437 45.304 48.4997C45.1581 48.1574 44.9373 47.8943 44.6405 47.7116L44.3476 47.5322C44.6158 47.7133 44.8184 47.9626 44.9544 48.2823C45.0997 48.6263 45.1641 49.0143 45.1487 49.4457C45.1333 49.8909 45.0375 50.3461 44.8608 50.8111C44.6835 51.2772 44.4203 51.7323 44.0723 52.1787C43.7216 52.6233 43.3087 53.003 42.8363 53.3129L42.8247 53.6266L43.1749 53.8285L43.1859 53.5303C43.6583 53.2199 44.0712 52.8407 44.4219 52.396Z" fill="url(#paint97_linear_2_76324)"/>
<path opacity="0.59" d="M44.4219 52.396C44.7699 51.9497 45.0331 51.4951 45.2104 51.0285C45.3871 50.5634 45.4829 50.1083 45.4983 49.6631C45.5143 49.2322 45.4499 48.8437 45.304 48.4997C45.1581 48.1574 44.9373 47.8943 44.6405 47.7116L44.3476 47.5322C44.6158 47.7133 44.8184 47.9626 44.9544 48.2823C45.0997 48.6263 45.1641 49.0143 45.1487 49.4457C45.1333 49.8909 45.0375 50.3461 44.8608 50.8111C44.6835 51.2772 44.4203 51.7323 44.0723 52.1787C43.7216 52.6233 43.3087 53.003 42.8363 53.3129L42.8247 53.6266L43.1749 53.8285L43.1859 53.5303C43.6583 53.2199 44.0712 52.8407 44.4219 52.396Z" fill="url(#paint98_linear_2_76324)"/>
<path d="M44.4219 52.396C44.7699 51.9497 45.0331 51.4951 45.2104 51.0285C45.3871 50.5634 45.4829 50.1083 45.4983 49.6631C45.5143 49.2322 45.4499 48.8437 45.304 48.4997C45.1581 48.1574 44.9373 47.8943 44.6405 47.7116L44.3476 47.5322C44.6158 47.7133 44.8184 47.9626 44.9544 48.2823C45.0997 48.6263 45.1641 49.0143 45.1487 49.4457C45.1333 49.8909 45.0375 50.3461 44.8608 50.8111C44.6835 51.2772 44.4203 51.7323 44.0723 52.1787C43.7216 52.6233 43.3087 53.003 42.8363 53.3129L42.8247 53.6266L43.1749 53.8285L43.1859 53.5303C43.6583 53.2199 44.0712 52.8407 44.4219 52.396Z" fill="url(#paint99_linear_2_76324)"/>
<path d="M45.2945 44.5442L43.6196 45.4324L43.988 45.5783L43.4082 45.9475L45.6442 44.7616C45.6794 43.8051 45.5153 43.1513 45.1525 42.8019C45.0468 42.7001 44.9267 42.6252 44.7935 42.5757C44.7968 42.5784 44.8001 42.5812 44.8034 42.5845C45.1657 42.9345 45.3298 43.5883 45.2945 44.5442Z" fill="url(#paint100_linear_2_76324)"/>
<path d="M45.2945 44.5442L43.6196 45.4324L43.988 45.5783L43.4082 45.9475L45.6442 44.7616C45.6794 43.8051 45.5153 43.1513 45.1525 42.8019C45.0468 42.7001 44.9267 42.6252 44.7935 42.5757C44.7968 42.5784 44.8001 42.5812 44.8034 42.5845C45.1657 42.9345 45.3298 43.5883 45.2945 44.5442Z" fill="url(#paint101_linear_2_76324)"/>
<path d="M45.2945 44.5442L43.6196 45.4324L43.988 45.5783L43.4082 45.9475L45.6442 44.7616C45.6794 43.8051 45.5153 43.1513 45.1525 42.8019C45.0468 42.7001 44.9267 42.6252 44.7935 42.5757C44.7968 42.5784 44.8001 42.5812 44.8034 42.5845C45.1657 42.9345 45.3298 43.5883 45.2945 44.5442Z" fill="url(#paint102_linear_2_76324)"/>
<path opacity="0.82" d="M45.2945 44.5442L43.6196 45.4324L43.988 45.5783L43.4082 45.9475L45.6442 44.7616C45.6794 43.8051 45.5153 43.1513 45.1525 42.8019C45.0468 42.7001 44.9267 42.6252 44.7935 42.5757C44.7968 42.5784 44.8001 42.5812 44.8034 42.5845C45.1657 42.9345 45.3298 43.5883 45.2945 44.5442Z" fill="url(#paint103_linear_2_76324)"/>
<path opacity="0.59" d="M45.2945 44.5442L43.6196 45.4324L43.988 45.5783L43.4082 45.9475L45.6442 44.7616C45.6794 43.8051 45.5153 43.1513 45.1525 42.8019C45.0468 42.7001 44.9267 42.6252 44.7935 42.5757C44.7968 42.5784 44.8001 42.5812 44.8034 42.5845C45.1657 42.9345 45.3298 43.5883 45.2945 44.5442Z" fill="url(#paint104_linear_2_76324)"/>
<path d="M45.2945 44.5442L43.6196 45.4324L43.988 45.5783L43.4082 45.9475L45.6442 44.7616C45.6794 43.8051 45.5153 43.1513 45.1525 42.8019C45.0468 42.7001 44.9267 42.6252 44.7935 42.5757C44.7968 42.5784 44.8001 42.5812 44.8034 42.5845C45.1657 42.9345 45.3298 43.5883 45.2945 44.5442Z" fill="url(#paint105_linear_2_76324)"/>
<path d="M42.2667 51.4162C42.2182 51.2747 42.1984 51.0673 42.2083 50.7943L42.2177 50.4966L41.8565 50.6881C41.8537 51.2445 41.9903 51.4872 42.2667 51.4162Z" fill="url(#paint106_linear_2_76324)"/>
<path d="M42.2667 51.4162C42.2182 51.2747 42.1984 51.0673 42.2083 50.7943L42.2177 50.4966L41.8565 50.6881C41.8537 51.2445 41.9903 51.4872 42.2667 51.4162Z" fill="url(#paint107_linear_2_76324)"/>
<path d="M42.2667 51.4162C42.2182 51.2747 42.1984 51.0673 42.2083 50.7943L42.2177 50.4966L41.8565 50.6881C41.8537 51.2445 41.9903 51.4872 42.2667 51.4162Z" fill="url(#paint108_linear_2_76324)"/>
<path opacity="0.82" d="M42.2667 51.4162C42.2182 51.2747 42.1984 51.0673 42.2083 50.7943L42.2177 50.4966L41.8565 50.6881C41.8537 51.2445 41.9903 51.4872 42.2667 51.4162Z" fill="url(#paint109_linear_2_76324)"/>
<path opacity="0.59" d="M42.2667 51.4162C42.2182 51.2747 42.1984 51.0673 42.2083 50.7943L42.2177 50.4966L41.8565 50.6881C41.8537 51.2445 41.9903 51.4872 42.2667 51.4162Z" fill="url(#paint110_linear_2_76324)"/>
<path d="M42.2667 51.4162C42.2182 51.2747 42.1984 51.0673 42.2083 50.7943L42.2177 50.4966L41.8565 50.6881C41.8537 51.2445 41.9903 51.4872 42.2667 51.4162Z" fill="url(#paint111_linear_2_76324)"/>
<path d="M43.6196 45.4331L43.4143 45.5415L43.4082 45.9477L43.988 45.5784L43.6196 45.4331Z" fill="url(#paint112_linear_2_76324)"/>
<path d="M43.6196 45.4331L43.4143 45.5415L43.4082 45.9477L43.988 45.5784L43.6196 45.4331Z" fill="url(#paint113_linear_2_76324)"/>
<path d="M43.6196 45.4331L43.4143 45.5415L43.4082 45.9477L43.988 45.5784L43.6196 45.4331Z" fill="url(#paint114_linear_2_76324)"/>
<path opacity="0.82" d="M43.6196 45.4331L43.4143 45.5415L43.4082 45.9477L43.988 45.5784L43.6196 45.4331Z" fill="url(#paint115_linear_2_76324)"/>
<path opacity="0.59" d="M43.6196 45.4331L43.4143 45.5415L43.4082 45.9477L43.988 45.5784L43.6196 45.4331Z" fill="url(#paint116_linear_2_76324)"/>
<path opacity="0.82" d="M43.6196 45.4331L43.4143 45.5415L43.4082 45.9477L43.988 45.5784L43.6196 45.4331Z" fill="#FAA925"/>
<path d="M43.6196 45.4331L43.4143 45.5415L43.4082 45.9477L43.988 45.5784L43.6196 45.4331Z" fill="url(#paint117_linear_2_76324)"/>
<path d="M43.2251 42.4621C43.2769 42.4418 43.3275 42.4242 43.3776 42.4077L43.5841 42.3339L43.6055 41.8408L43.2411 42.034L43.2251 42.4621Z" fill="#FAA925"/>
<path d="M43.2251 42.4621C43.2769 42.4418 43.3275 42.4242 43.3776 42.4077L43.5841 42.3339L43.6055 41.8408L43.2411 42.034L43.2251 42.4621Z" fill="url(#paint118_linear_2_76324)"/>
<path d="M44.0721 52.1798C44.4201 51.7335 44.6833 51.2789 44.8606 50.8123C45.0373 50.3472 45.1331 49.8921 45.1485 49.4469C45.1645 49.016 45.1001 48.6275 44.9542 48.2835C44.8182 47.9638 44.6156 47.7139 44.3474 47.5334C44.3287 47.5208 44.3105 47.5076 44.2907 47.4955L42.8598 46.6193L42.6081 46.4652C42.2112 46.2209 42.0163 45.9787 42.0251 45.7416C42.0306 45.5809 42.0867 45.4224 42.193 45.2655C42.2993 45.1098 42.4259 44.992 42.5718 44.9155C42.7017 44.8462 42.8152 44.8346 42.9148 44.8764C42.9985 44.9128 43.0481 44.9799 43.0629 45.0784C43.0657 45.096 43.0673 45.1142 43.0679 45.1334L43.0591 45.7306L43.4147 45.5418L43.6201 45.4328L45.295 44.5446C45.3302 43.5881 45.1662 42.9343 44.8033 42.5849C44.8 42.5816 44.7967 42.5794 44.7934 42.5761C44.4988 42.2982 44.0964 42.2217 43.5865 42.3471C43.5188 42.3637 43.4489 42.3846 43.3773 42.4082C43.3272 42.4247 43.2765 42.4424 43.2248 42.4627L43.2408 42.0346L43.2556 41.624L42.1721 42.1986L42.1401 43.0604C41.4965 43.5265 40.979 44.0994 40.5875 44.7807C40.1966 45.4631 39.9901 46.1229 39.9681 46.7619C39.9361 47.6385 40.2368 48.2769 40.8699 48.6753L42.6004 49.7732C42.8476 49.9631 42.9682 50.1403 42.9622 50.3065C42.955 50.5382 42.8999 50.7517 42.8019 50.9421C42.7023 51.1353 42.5718 51.2734 42.4083 51.3598C42.3576 51.3868 42.3108 51.405 42.2673 51.4165C41.9904 51.4881 41.8538 51.2454 41.8577 50.6884C41.8577 50.6527 41.8582 50.6158 41.8599 50.5773L41.8692 50.2795L39.6895 51.4352L39.6763 51.8106L42.8251 53.6277L42.8366 53.314C43.309 53.0037 43.7214 52.6245 44.0721 52.1798Z" fill="#FFE169"/>
<path d="M46.3589 55.6659L46.3991 55.689L50.1601 55.1276C52.4671 52.0051 54.0181 48.1825 54.132 44.749C54.2284 41.8384 53.2737 39.7592 51.6528 38.7505L52.0839 40.9672L51.6814 40.7515C51.8686 41.5274 51.9534 42.4041 51.9214 43.3738C51.7833 47.5485 49.522 52.2995 46.3589 55.6659Z" fill="url(#paint119_linear_2_76324)"/>
</g>
<defs>
<linearGradient id="paint0_linear_2_76324" x1="1.17855" y1="66.8147" x2="91.264" y2="66.8147" gradientUnits="userSpaceOnUse">
<stop stop-color="#3BBFFF"/>
<stop offset="0.2913" stop-color="#2F93F0"/>
<stop offset="0.6027" stop-color="#256BE2"/>
<stop offset="0.8498" stop-color="#1E52D9"/>
<stop offset="1" stop-color="#1C49D6"/>
</linearGradient>
<linearGradient id="paint1_linear_2_76324" x1="57.2448" y1="31.5219" x2="58.0203" y2="31.0648" gradientUnits="userSpaceOnUse">
<stop stop-color="#FCE559"/>
<stop offset="1" stop-color="#F6AA28"/>
</linearGradient>
<linearGradient id="paint2_linear_2_76324" x1="71.3273" y1="23.527" x2="72.4399" y2="22.8712" gradientUnits="userSpaceOnUse">
<stop stop-color="#FCE559"/>
<stop offset="1" stop-color="#F6AA28"/>
</linearGradient>
<linearGradient id="paint3_linear_2_76324" x1="57.5584" y1="32.0526" x2="72.6199" y2="23.1751" gradientUnits="userSpaceOnUse">
<stop stop-color="#FCE559"/>
<stop offset="1" stop-color="#F6AA28"/>
</linearGradient>
<linearGradient id="paint4_linear_2_76324" x1="57.0584" y1="26.1645" x2="67.8178" y2="32.2529" gradientUnits="userSpaceOnUse">
<stop stop-color="#FCE559"/>
<stop offset="1" stop-color="#F6AA28"/>
</linearGradient>
<linearGradient id="paint5_linear_2_76324" x1="62.5642" y1="21.4887" x2="66.3254" y2="30.6855" gradientUnits="userSpaceOnUse">
<stop stop-color="#FCE559"/>
<stop offset="1" stop-color="#F6AA28"/>
</linearGradient>
<linearGradient id="paint6_linear_2_76324" x1="66.8069" y1="29.3271" x2="62.7506" y2="21.8822" gradientUnits="userSpaceOnUse">
<stop stop-color="#FCD835"/>
<stop offset="1" stop-color="#FAA925"/>
</linearGradient>
<linearGradient id="paint7_linear_2_76324" x1="66.5252" y1="28.9795" x2="62.9061" y2="22.337" gradientUnits="userSpaceOnUse">
<stop stop-color="#FFC533"/>
<stop offset="1" stop-color="#F8BA26"/>
</linearGradient>
<linearGradient id="paint8_linear_2_76324" x1="60.7412" y1="28.2138" x2="67.8621" y2="24.2818" gradientUnits="userSpaceOnUse">
<stop stop-color="#FCD835"/>
<stop offset="1" stop-color="#FAA925"/>
</linearGradient>
<linearGradient id="paint9_linear_2_76324" x1="77.1124" y1="17.5016" x2="77.2308" y2="16.6097" gradientUnits="userSpaceOnUse">
<stop stop-color="#FCE559"/>
<stop offset="1" stop-color="#F6AA28"/>
</linearGradient>
<linearGradient id="paint10_linear_2_76324" x1="79.5002" y1="1.48978" x2="79.6702" y2="0.210008" gradientUnits="userSpaceOnUse">
<stop stop-color="#FCE559"/>
<stop offset="1" stop-color="#F6AA28"/>
</linearGradient>
<linearGradient id="paint11_linear_2_76324" x1="77.7249" y1="17.5819" x2="80.0256" y2="0.256852" gradientUnits="userSpaceOnUse">
<stop stop-color="#FCE559"/>
<stop offset="1" stop-color="#F6AA28"/>
</linearGradient>
<linearGradient id="paint12_linear_2_76324" x1="72.7782" y1="14.3438" x2="84.2049" y2="9.62394" gradientUnits="userSpaceOnUse">
<stop stop-color="#FCE559"/>
<stop offset="1" stop-color="#F6AA28"/>
</linearGradient>
<linearGradient id="paint13_linear_2_76324" x1="72.4905" y1="7.12848" x2="82.0535" y2="9.83988" gradientUnits="userSpaceOnUse">
<stop stop-color="#FCE559"/>
<stop offset="1" stop-color="#F6AA28"/>
</linearGradient>
<linearGradient id="paint14_linear_2_76324" x1="81.2807" y1="8.62479" x2="72.9155" y2="7.22718" gradientUnits="userSpaceOnUse">
<stop stop-color="#FCD835"/>
<stop offset="1" stop-color="#FAA925"/>
</linearGradient>
<linearGradient id="paint15_linear_2_76324" x1="80.8338" y1="8.63135" x2="73.3702" y2="7.38437" gradientUnits="userSpaceOnUse">
<stop stop-color="#FFC533"/>
<stop offset="1" stop-color="#F8BA26"/>
</linearGradient>
<linearGradient id="paint16_linear_2_76324" x1="76.6637" y1="12.7105" x2="77.96" y2="4.68284" gradientUnits="userSpaceOnUse">
<stop stop-color="#FCD835"/>
<stop offset="1" stop-color="#FAA925"/>
</linearGradient>
<linearGradient id="paint17_linear_2_76324" x1="40.847" y1="27.892" x2="40.9655" y2="27" gradientUnits="userSpaceOnUse">
<stop stop-color="#FCE559"/>
<stop offset="1" stop-color="#F6AA28"/>
</linearGradient>
<linearGradient id="paint18_linear_2_76324" x1="43.2349" y1="11.8801" x2="43.4048" y2="10.6003" gradientUnits="userSpaceOnUse">
<stop stop-color="#FCE559"/>
<stop offset="1" stop-color="#F6AA28"/>
</linearGradient>
<linearGradient id="paint19_linear_2_76324" x1="41.4596" y1="27.9728" x2="43.7602" y2="10.6478" gradientUnits="userSpaceOnUse">
<stop stop-color="#FCE559"/>
<stop offset="1" stop-color="#F6AA28"/>
</linearGradient>
<linearGradient id="paint20_linear_2_76324" x1="36.5128" y1="24.7341" x2="47.9395" y2="20.0143" gradientUnits="userSpaceOnUse">
<stop stop-color="#FCE559"/>
<stop offset="1" stop-color="#F6AA28"/>
</linearGradient>
<linearGradient id="paint21_linear_2_76324" x1="36.2254" y1="17.5188" x2="45.7884" y2="20.2302" gradientUnits="userSpaceOnUse">
<stop stop-color="#FCE559"/>
<stop offset="1" stop-color="#F6AA28"/>
</linearGradient>
<linearGradient id="paint22_linear_2_76324" x1="45.0158" y1="19.0151" x2="36.6505" y2="17.6175" gradientUnits="userSpaceOnUse">
<stop stop-color="#FCD835"/>
<stop offset="1" stop-color="#FAA925"/>
</linearGradient>
<linearGradient id="paint23_linear_2_76324" x1="44.5684" y1="19.0217" x2="37.1048" y2="17.7747" gradientUnits="userSpaceOnUse">
<stop stop-color="#FFC533"/>
<stop offset="1" stop-color="#F8BA26"/>
</linearGradient>
<linearGradient id="paint24_linear_2_76324" x1="40.3983" y1="23.1008" x2="41.6947" y2="15.0732" gradientUnits="userSpaceOnUse">
<stop stop-color="#FCD835"/>
<stop offset="1" stop-color="#FAA925"/>
</linearGradient>
<linearGradient id="paint25_linear_2_76324" x1="56.5699" y1="13.6787" x2="56.9478" y2="13.354" gradientUnits="userSpaceOnUse">
<stop stop-color="#FCE559"/>
<stop offset="1" stop-color="#F6AA28"/>
</linearGradient>
<linearGradient id="paint26_linear_2_76324" x1="63.463" y1="7.94784" x2="64.0053" y2="7.48185" gradientUnits="userSpaceOnUse">
<stop stop-color="#FCE559"/>
<stop offset="1" stop-color="#F6AA28"/>
</linearGradient>
<linearGradient id="paint27_linear_2_76324" x1="56.7925" y1="13.9379" x2="64.1327" y2="7.63004" gradientUnits="userSpaceOnUse">
<stop stop-color="#FCE559"/>
<stop offset="1" stop-color="#F6AA28"/>
</linearGradient>
<linearGradient id="paint28_linear_2_76324" x1="55.9451" y1="10.7772" x2="62.4032" y2="13.0446" gradientUnits="userSpaceOnUse">
<stop stop-color="#FCE559"/>
<stop offset="1" stop-color="#F6AA28"/>
</linearGradient>
<linearGradient id="paint29_linear_2_76324" x1="58.4885" y1="7.69233" x2="61.4358" y2="12.3376" gradientUnits="userSpaceOnUse">
<stop stop-color="#FCE559"/>
<stop offset="1" stop-color="#F6AA28"/>
</linearGradient>
<linearGradient id="paint30_linear_2_76324" x1="61.5662" y1="11.5499" x2="58.6291" y2="7.88824" gradientUnits="userSpaceOnUse">
<stop stop-color="#FCD835"/>
<stop offset="1" stop-color="#FAA925"/>
</linearGradient>
<linearGradient id="paint31_linear_2_76324" x1="61.379" y1="11.3882" x2="58.7584" y2="8.1212" gradientUnits="userSpaceOnUse">
<stop stop-color="#FFC533"/>
<stop offset="1" stop-color="#F8BA26"/>
</linearGradient>
<linearGradient id="paint32_linear_2_76324" x1="58.1522" y1="11.5344" x2="61.6486" y2="8.69676" gradientUnits="userSpaceOnUse">
<stop stop-color="#FCD835"/>
<stop offset="1" stop-color="#FAA925"/>
</linearGradient>
<linearGradient id="paint33_linear_2_76324" x1="49.5379" y1="39.6838" x2="50.546" y2="38.0629" gradientUnits="userSpaceOnUse">
<stop stop-color="#FCE559"/>
<stop offset="1" stop-color="#F6AA28"/>
</linearGradient>
<linearGradient id="paint34_linear_2_76324" x1="50.7434" y1="40.4336" x2="51.7515" y2="38.8128" gradientUnits="userSpaceOnUse">
<stop stop-color="#FCE559"/>
<stop offset="1" stop-color="#F6AA28"/>
</linearGradient>
<linearGradient id="paint35_linear_2_76324" x1="38.0961" y1="60.7491" x2="51.7432" y2="38.8077" gradientUnits="userSpaceOnUse">
<stop stop-color="#FCE559"/>
<stop offset="1" stop-color="#F6AA28"/>
</linearGradient>
<linearGradient id="paint36_linear_2_76324" x1="33.5448" y1="46.0644" x2="51.8126" y2="46.6679" gradientUnits="userSpaceOnUse">
<stop stop-color="#FCE559"/>
<stop offset="1" stop-color="#F6AA28"/>
</linearGradient>
<linearGradient id="paint37_linear_2_76324" x1="48.9853" y1="39.3408" x2="49.9934" y2="37.72" gradientUnits="userSpaceOnUse">
<stop stop-color="#FCE559"/>
<stop offset="1" stop-color="#F6AA28"/>
</linearGradient>
<linearGradient id="paint38_linear_2_76324" x1="33.5285" y1="46.5683" x2="51.7961" y2="47.1718" gradientUnits="userSpaceOnUse">
<stop stop-color="#FCE559"/>
<stop offset="1" stop-color="#F6AA28"/>
</linearGradient>
<linearGradient id="paint39_linear_2_76324" x1="40.2948" y1="62.1175" x2="53.9418" y2="40.1759" gradientUnits="userSpaceOnUse">
<stop stop-color="#FCE559"/>
<stop offset="1" stop-color="#F6AA28"/>
</linearGradient>
<linearGradient id="paint40_linear_2_76324" x1="33.2021" y1="56.4081" x2="51.4705" y2="57.0116" gradientUnits="userSpaceOnUse">
<stop stop-color="#FCE559"/>
<stop offset="1" stop-color="#F6AA28"/>
</linearGradient>
<linearGradient id="paint41_linear_2_76324" x1="50.2351" y1="40.1173" x2="51.2431" y2="38.4965" gradientUnits="userSpaceOnUse">
<stop stop-color="#FCE559"/>
<stop offset="1" stop-color="#F6AA28"/>
</linearGradient>
<linearGradient id="paint42_linear_2_76324" x1="37.5877" y1="60.4326" x2="51.2346" y2="38.4911" gradientUnits="userSpaceOnUse">
<stop stop-color="#FCE559"/>
<stop offset="1" stop-color="#F6AA28"/>
</linearGradient>
<linearGradient id="paint43_linear_2_76324" x1="33.4616" y1="48.6089" x2="51.7283" y2="49.2123" gradientUnits="userSpaceOnUse">
<stop stop-color="#FCE559"/>
<stop offset="1" stop-color="#F6AA28"/>
</linearGradient>
<linearGradient id="paint44_linear_2_76324" x1="33.522" y1="46.7475" x2="51.7897" y2="47.351" gradientUnits="userSpaceOnUse">
<stop stop-color="#FCE559"/>
<stop offset="1" stop-color="#F6AA28"/>
</linearGradient>
<linearGradient id="paint45_linear_2_76324" x1="39.3678" y1="40.9849" x2="50.5965" y2="50.4604" gradientUnits="userSpaceOnUse">
<stop stop-color="#FCE559"/>
<stop offset="1" stop-color="#F6AA28"/>
</linearGradient>
<linearGradient id="paint46_linear_2_76324" x1="48.6925" y1="39.1579" x2="49.7006" y2="37.5371" gradientUnits="userSpaceOnUse">
<stop stop-color="#FCE559"/>
<stop offset="1" stop-color="#F6AA28"/>
</linearGradient>
<linearGradient id="paint47_linear_2_76324" x1="33.5328" y1="46.4398" x2="51.8001" y2="47.0432" gradientUnits="userSpaceOnUse">
<stop stop-color="#FCE559"/>
<stop offset="1" stop-color="#F6AA28"/>
</linearGradient>
<linearGradient id="paint48_linear_2_76324" x1="45.1471" y1="34.1367" x2="56.3755" y2="43.6117" gradientUnits="userSpaceOnUse">
<stop stop-color="#FCE559"/>
<stop offset="1" stop-color="#F6AA28"/>
</linearGradient>
<linearGradient id="paint49_linear_2_76324" x1="38.0513" y1="60.7217" x2="51.6983" y2="38.7801" gradientUnits="userSpaceOnUse">
<stop stop-color="#FCE559"/>
<stop offset="1" stop-color="#F6AA28"/>
</linearGradient>
<linearGradient id="paint50_linear_2_76324" x1="33.2815" y1="54.0058" x2="51.5497" y2="54.6093" gradientUnits="userSpaceOnUse">
<stop stop-color="#FCE559"/>
<stop offset="1" stop-color="#F6AA28"/>
</linearGradient>
<linearGradient id="paint51_linear_2_76324" x1="40.172" y1="40.0322" x2="51.3999" y2="49.5069" gradientUnits="userSpaceOnUse">
<stop stop-color="#FCE559"/>
<stop offset="1" stop-color="#F6AA28"/>
</linearGradient>
<linearGradient id="paint52_linear_2_76324" x1="49.8119" y1="39.8547" x2="50.82" y2="38.2339" gradientUnits="userSpaceOnUse">
<stop stop-color="#FCE559"/>
<stop offset="1" stop-color="#F6AA28"/>
</linearGradient>
<linearGradient id="paint53_linear_2_76324" x1="37.1643" y1="60.1703" x2="50.8114" y2="38.2285" gradientUnits="userSpaceOnUse">
<stop stop-color="#FCE559"/>
<stop offset="1" stop-color="#F6AA28"/>
</linearGradient>
<linearGradient id="paint54_linear_2_76324" x1="33.475" y1="48.197" x2="51.7422" y2="48.8004" gradientUnits="userSpaceOnUse">
<stop stop-color="#FCE559"/>
<stop offset="1" stop-color="#F6AA28"/>
</linearGradient>
<linearGradient id="paint55_linear_2_76324" x1="44.792" y1="34.5582" x2="56.0203" y2="44.0333" gradientUnits="userSpaceOnUse">
<stop stop-color="#FCE559"/>
<stop offset="1" stop-color="#F6AA28"/>
</linearGradient>
<linearGradient id="paint56_linear_2_76324" x1="33.4879" y1="47.778" x2="51.7558" y2="48.3815" gradientUnits="userSpaceOnUse">
<stop stop-color="#FCE559"/>
<stop offset="1" stop-color="#F6AA28"/>
</linearGradient>
<linearGradient id="paint57_linear_2_76324" x1="38.6657" y1="41.8167" x2="49.8947" y2="51.2923" gradientUnits="userSpaceOnUse">
<stop stop-color="#FCE559"/>
<stop offset="1" stop-color="#F6AA28"/>
</linearGradient>
<linearGradient id="paint58_linear_2_76324" x1="50.1255" y1="47.9757" x2="39.7097" y2="40.9984" gradientUnits="userSpaceOnUse">
<stop stop-color="#FCD835"/>
<stop offset="1" stop-color="#FAA925"/>
</linearGradient>
<linearGradient id="paint59_linear_2_76324" x1="37.001" y1="60.068" x2="50.648" y2="38.1264" gradientUnits="userSpaceOnUse">
<stop stop-color="#FCE559"/>
<stop offset="1" stop-color="#F6AA28"/>
</linearGradient>
<linearGradient id="paint60_linear_2_76324" x1="33.3012" y1="53.453" x2="51.5682" y2="54.0565" gradientUnits="userSpaceOnUse">
<stop stop-color="#FCE559"/>
<stop offset="1" stop-color="#F6AA28"/>
</linearGradient>
<linearGradient id="paint61_linear_2_76324" x1="39.7152" y1="40.5735" x2="50.9432" y2="50.0483" gradientUnits="userSpaceOnUse">
<stop stop-color="#FCE559"/>
<stop offset="1" stop-color="#F6AA28"/>
</linearGradient>
<linearGradient id="paint62_linear_2_76324" x1="49.8509" y1="48.3843" x2="39.4359" y2="41.4076" gradientUnits="userSpaceOnUse">
<stop stop-color="#FCD835"/>
<stop offset="1" stop-color="#FAA925"/>
</linearGradient>
<linearGradient id="paint63_linear_2_76324" x1="33.597" y1="44.4685" x2="51.8654" y2="45.072" gradientUnits="userSpaceOnUse">
<stop stop-color="#FCE559"/>
<stop offset="1" stop-color="#F6AA28"/>
</linearGradient>
<linearGradient id="paint64_linear_2_76324" x1="41.6581" y1="38.2711" x2="52.8869" y2="47.7472" gradientUnits="userSpaceOnUse">
<stop stop-color="#FCE559"/>
<stop offset="1" stop-color="#F6AA28"/>
</linearGradient>
<linearGradient id="paint65_linear_2_76324" x1="33.4977" y1="47.4864" x2="51.7657" y2="48.0899" gradientUnits="userSpaceOnUse">
<stop stop-color="#FCE559"/>
<stop offset="1" stop-color="#F6AA28"/>
</linearGradient>
<linearGradient id="paint66_linear_2_76324" x1="37.6764" y1="42.9898" x2="48.9034" y2="52.4638" gradientUnits="userSpaceOnUse">
<stop stop-color="#FCE559"/>
<stop offset="1" stop-color="#F6AA28"/>
</linearGradient>
<linearGradient id="paint67_linear_2_76324" x1="49.5231" y1="48.8767" x2="39.1068" y2="41.899" gradientUnits="userSpaceOnUse">
<stop stop-color="#FCD835"/>
<stop offset="1" stop-color="#FAA925"/>
</linearGradient>
<linearGradient id="paint68_linear_2_76324" x1="33.4637" y1="48.5176" x2="51.7317" y2="49.1211" gradientUnits="userSpaceOnUse">
<stop stop-color="#FCE559"/>
<stop offset="1" stop-color="#F6AA28"/>
</linearGradient>
<linearGradient id="paint69_linear_2_76324" x1="37.7667" y1="42.8824" x2="48.9941" y2="52.3567" gradientUnits="userSpaceOnUse">
<stop stop-color="#FCE559"/>
<stop offset="1" stop-color="#F6AA28"/>
</linearGradient>
<linearGradient id="paint70_linear_2_76324" x1="49.4244" y1="49.0232" x2="39.0082" y2="42.0457" gradientUnits="userSpaceOnUse">
<stop stop-color="#FCD835"/>
<stop offset="1" stop-color="#FAA925"/>
</linearGradient>
<linearGradient id="paint71_linear_2_76324" x1="48.8175" y1="48.7602" x2="39.524" y2="42.5347" gradientUnits="userSpaceOnUse">
<stop stop-color="#FFC533"/>
<stop offset="1" stop-color="#F8BA26"/>
</linearGradient>
<linearGradient id="paint72_linear_2_76324" x1="36.0945" y1="59.5045" x2="49.7415" y2="37.5627" gradientUnits="userSpaceOnUse">
<stop stop-color="#FCE559"/>
<stop offset="1" stop-color="#F6AA28"/>
</linearGradient>
<linearGradient id="paint73_linear_2_76324" x1="33.3109" y1="53.1436" x2="51.5784" y2="53.7471" gradientUnits="userSpaceOnUse">
<stop stop-color="#FCE559"/>
<stop offset="1" stop-color="#F6AA28"/>
</linearGradient>
<linearGradient id="paint74_linear_2_76324" x1="38.6661" y1="41.8165" x2="49.8943" y2="51.2914" gradientUnits="userSpaceOnUse">
<stop stop-color="#FCE559"/>
<stop offset="1" stop-color="#F6AA28"/>
</linearGradient>
<linearGradient id="paint75_linear_2_76324" x1="49.547" y1="48.8381" x2="39.1319" y2="41.8612" gradientUnits="userSpaceOnUse">
<stop stop-color="#FCD835"/>
<stop offset="1" stop-color="#FAA925"/>
</linearGradient>
<linearGradient id="paint76_linear_2_76324" x1="48.9402" y1="48.5751" x2="39.6476" y2="42.3502" gradientUnits="userSpaceOnUse">
<stop stop-color="#FFC533"/>
<stop offset="1" stop-color="#F8BA26"/>
</linearGradient>
<linearGradient id="paint77_linear_2_76324" x1="35.1076" y1="58.8908" x2="48.7546" y2="36.949" gradientUnits="userSpaceOnUse">
<stop stop-color="#FCE559"/>
<stop offset="1" stop-color="#F6AA28"/>
</linearGradient>
<linearGradient id="paint78_linear_2_76324" x1="33.3785" y1="51.1007" x2="51.646" y2="51.7041" gradientUnits="userSpaceOnUse">
<stop stop-color="#FCE559"/>
<stop offset="1" stop-color="#F6AA28"/>
</linearGradient>
<linearGradient id="paint79_linear_2_76324" x1="38.8685" y1="41.5766" x2="50.097" y2="51.052" gradientUnits="userSpaceOnUse">
<stop stop-color="#FCE559"/>
<stop offset="1" stop-color="#F6AA28"/>
</linearGradient>
<linearGradient id="paint80_linear_2_76324" x1="49.7728" y1="48.5016" x2="39.3575" y2="41.5246" gradientUnits="userSpaceOnUse">
<stop stop-color="#FCD835"/>
<stop offset="1" stop-color="#FAA925"/>
</linearGradient>
<linearGradient id="paint81_linear_2_76324" x1="49.166" y1="48.2386" x2="39.8732" y2="42.0135" gradientUnits="userSpaceOnUse">
<stop stop-color="#FFC533"/>
<stop offset="1" stop-color="#F8BA26"/>
</linearGradient>
<linearGradient id="paint82_linear_2_76324" x1="34.6439" y1="58.6022" x2="48.2908" y2="36.6606" gradientUnits="userSpaceOnUse">
<stop stop-color="#FCE559"/>
<stop offset="1" stop-color="#F6AA28"/>
</linearGradient>
<linearGradient id="paint83_linear_2_76324" x1="33.3903" y1="50.746" x2="51.6579" y2="51.3494" gradientUnits="userSpaceOnUse">
<stop stop-color="#FCE559"/>
<stop offset="1" stop-color="#F6AA28"/>
</linearGradient>
<linearGradient id="paint84_linear_2_76324" x1="38.6337" y1="41.8553" x2="49.8618" y2="51.3302" gradientUnits="userSpaceOnUse">
<stop stop-color="#FCE559"/>
<stop offset="1" stop-color="#F6AA28"/>
</linearGradient>
<linearGradient id="paint85_linear_2_76324" x1="49.6534" y1="48.6796" x2="39.2384" y2="41.7028" gradientUnits="userSpaceOnUse">
<stop stop-color="#FCD835"/>
<stop offset="1" stop-color="#FAA925"/>
</linearGradient>
<linearGradient id="paint86_linear_2_76324" x1="49.0465" y1="48.4166" x2="39.7541" y2="42.1918" gradientUnits="userSpaceOnUse">
<stop stop-color="#FFC533"/>
<stop offset="1" stop-color="#F8BA26"/>
</linearGradient>
<linearGradient id="paint87_linear_2_76324" x1="38.1441" y1="52.5588" x2="44.778" y2="42.5322" gradientUnits="userSpaceOnUse">
<stop stop-color="#FCD835"/>
<stop offset="1" stop-color="#FAA925"/>
</linearGradient>
<linearGradient id="paint88_linear_2_76324" x1="33.6883" y1="58.0083" x2="47.3356" y2="36.0666" gradientUnits="userSpaceOnUse">
<stop stop-color="#FCE559"/>
<stop offset="1" stop-color="#F6AA28"/>
</linearGradient>
<linearGradient id="paint89_linear_2_76324" x1="33.4974" y1="47.4861" x2="51.7662" y2="48.0896" gradientUnits="userSpaceOnUse">
<stop stop-color="#FCE559"/>
<stop offset="1" stop-color="#F6AA28"/>
</linearGradient>
<linearGradient id="paint90_linear_2_76324" x1="40.6417" y1="39.4762" x2="51.8696" y2="48.9508" gradientUnits="userSpaceOnUse">
<stop stop-color="#FCE559"/>
<stop offset="1" stop-color="#F6AA28"/>
</linearGradient>
<linearGradient id="paint91_linear_2_76324" x1="51.6698" y1="45.6692" x2="41.255" y2="38.6928" gradientUnits="userSpaceOnUse">
<stop stop-color="#FCD835"/>
<stop offset="1" stop-color="#FAA925"/>
</linearGradient>
<linearGradient id="paint92_linear_2_76324" x1="51.063" y1="45.4062" x2="41.7708" y2="39.1817" gradientUnits="userSpaceOnUse">
<stop stop-color="#FFC533"/>
<stop offset="1" stop-color="#F8BA26"/>
</linearGradient>
<linearGradient id="paint93_linear_2_76324" x1="37.1157" y1="51.8788" x2="43.7498" y2="41.8522" gradientUnits="userSpaceOnUse">
<stop stop-color="#FCD835"/>
<stop offset="1" stop-color="#FAA925"/>
</linearGradient>
<linearGradient id="paint94_linear_2_76324" x1="37.8043" y1="60.5675" x2="51.4514" y2="38.6259" gradientUnits="userSpaceOnUse">
<stop stop-color="#FCE559"/>
<stop offset="1" stop-color="#F6AA28"/>
</linearGradient>
<linearGradient id="paint95_linear_2_76324" x1="33.2058" y1="56.3168" x2="51.4738" y2="56.9203" gradientUnits="userSpaceOnUse">
<stop stop-color="#FCE559"/>
<stop offset="1" stop-color="#F6AA28"/>
</linearGradient>
<linearGradient id="paint96_linear_2_76324" x1="36.7163" y1="44.1274" x2="47.9442" y2="53.6021" gradientUnits="userSpaceOnUse">
<stop stop-color="#FCE559"/>
<stop offset="1" stop-color="#F6AA28"/>
</linearGradient>
<linearGradient id="paint97_linear_2_76324" x1="47.2886" y1="52.2093" x2="36.8738" y2="45.2327" gradientUnits="userSpaceOnUse">
<stop stop-color="#FCD835"/>
<stop offset="1" stop-color="#FAA925"/>
</linearGradient>
<linearGradient id="paint98_linear_2_76324" x1="46.6818" y1="51.9462" x2="37.3895" y2="45.7217" gradientUnits="userSpaceOnUse">
<stop stop-color="#FFC533"/>
<stop offset="1" stop-color="#F8BA26"/>
</linearGradient>
<linearGradient id="paint99_linear_2_76324" x1="41.2968" y1="54.6444" x2="47.9309" y2="44.6178" gradientUnits="userSpaceOnUse">
<stop stop-color="#FCD835"/>
<stop offset="1" stop-color="#FAA925"/>
</linearGradient>
<linearGradient id="paint100_linear_2_76324" x1="35.5647" y1="59.1755" x2="49.2117" y2="37.2337" gradientUnits="userSpaceOnUse">
<stop stop-color="#FCE559"/>
<stop offset="1" stop-color="#F6AA28"/>
</linearGradient>
<linearGradient id="paint101_linear_2_76324" x1="33.4157" y1="49.9711" x2="51.6834" y2="50.5746" gradientUnits="userSpaceOnUse">
<stop stop-color="#FCE559"/>
<stop offset="1" stop-color="#F6AA28"/>
</linearGradient>
<linearGradient id="paint102_linear_2_76324" x1="39.924" y1="40.3267" x2="51.1521" y2="49.8017" gradientUnits="userSpaceOnUse">
<stop stop-color="#FCE559"/>
<stop offset="1" stop-color="#F6AA28"/>
</linearGradient>
<linearGradient id="paint103_linear_2_76324" x1="50.6981" y1="47.1205" x2="40.2831" y2="40.1436" gradientUnits="userSpaceOnUse">
<stop stop-color="#FCD835"/>
<stop offset="1" stop-color="#FAA925"/>
</linearGradient>
<linearGradient id="paint104_linear_2_76324" x1="50.0913" y1="46.8575" x2="40.7988" y2="40.6326" gradientUnits="userSpaceOnUse">
<stop stop-color="#FFC533"/>
<stop offset="1" stop-color="#F8BA26"/>
</linearGradient>
<linearGradient id="paint105_linear_2_76324" x1="38.9691" y1="53.1052" x2="45.6031" y2="43.0786" gradientUnits="userSpaceOnUse">
<stop stop-color="#FCD835"/>
<stop offset="1" stop-color="#FAA925"/>
</linearGradient>
<linearGradient id="paint106_linear_2_76324" x1="36.6025" y1="59.821" x2="50.2492" y2="37.8793" gradientUnits="userSpaceOnUse">
<stop stop-color="#FCE559"/>
<stop offset="1" stop-color="#F6AA28"/>
</linearGradient>
<linearGradient id="paint107_linear_2_76324" x1="33.2242" y1="55.7708" x2="51.4911" y2="56.3743" gradientUnits="userSpaceOnUse">
<stop stop-color="#FCE559"/>
<stop offset="1" stop-color="#F6AA28"/>
</linearGradient>
<linearGradient id="paint108_linear_2_76324" x1="35.8722" y1="45.1278" x2="47.1002" y2="54.603" gradientUnits="userSpaceOnUse">
<stop stop-color="#FCE559"/>
<stop offset="1" stop-color="#F6AA28"/>
</linearGradient>
<linearGradient id="paint109_linear_2_76324" x1="46.7849" y1="52.9616" x2="36.3699" y2="45.9847" gradientUnits="userSpaceOnUse">
<stop stop-color="#FCD835"/>
<stop offset="1" stop-color="#FAA925"/>
</linearGradient>
<linearGradient id="paint110_linear_2_76324" x1="46.1781" y1="52.6986" x2="36.8857" y2="46.4737" gradientUnits="userSpaceOnUse">
<stop stop-color="#FFC533"/>
<stop offset="1" stop-color="#F8BA26"/>
</linearGradient>
<linearGradient id="paint111_linear_2_76324" x1="40.174" y1="53.9025" x2="46.8078" y2="43.8759" gradientUnits="userSpaceOnUse">
<stop stop-color="#FCD835"/>
<stop offset="1" stop-color="#FAA925"/>
</linearGradient>
<linearGradient id="paint112_linear_2_76324" x1="35.3196" y1="59.0233" x2="48.9669" y2="37.0815" gradientUnits="userSpaceOnUse">
<stop stop-color="#FCE559"/>
<stop offset="1" stop-color="#F6AA28"/>
</linearGradient>
<linearGradient id="paint113_linear_2_76324" x1="33.3786" y1="51.1019" x2="51.6458" y2="51.7053" gradientUnits="userSpaceOnUse">
<stop stop-color="#FCE559"/>
<stop offset="1" stop-color="#F6AA28"/>
</linearGradient>
<linearGradient id="paint114_linear_2_76324" x1="39.0113" y1="41.408" x2="50.2398" y2="50.8832" gradientUnits="userSpaceOnUse">
<stop stop-color="#FCE559"/>
<stop offset="1" stop-color="#F6AA28"/>
</linearGradient>
<linearGradient id="paint115_linear_2_76324" x1="49.8278" y1="48.42" x2="39.4124" y2="41.4431" gradientUnits="userSpaceOnUse">
<stop stop-color="#FCD835"/>
<stop offset="1" stop-color="#FAA925"/>
</linearGradient>
<linearGradient id="paint116_linear_2_76324" x1="49.2209" y1="48.157" x2="39.9281" y2="41.9321" gradientUnits="userSpaceOnUse">
<stop stop-color="#FFC533"/>
<stop offset="1" stop-color="#F8BA26"/>
</linearGradient>
<linearGradient id="paint117_linear_2_76324" x1="38.7849" y1="52.9835" x2="45.419" y2="42.9569" gradientUnits="userSpaceOnUse">
<stop stop-color="#FCD835"/>
<stop offset="1" stop-color="#FAA925"/>
</linearGradient>
<linearGradient id="paint118_linear_2_76324" x1="37.0297" y1="51.8217" x2="43.6638" y2="41.7951" gradientUnits="userSpaceOnUse">
<stop stop-color="#FCD835"/>
<stop offset="1" stop-color="#FAA925"/>
</linearGradient>
<linearGradient id="paint119_linear_2_76324" x1="42.4231" y1="47.2203" x2="54.1385" y2="47.2203" gradientUnits="userSpaceOnUse">
<stop stop-color="#FCE559"/>
<stop offset="1" stop-color="#F6AA28"/>
</linearGradient>
<clipPath id="clip0_2_76324">
<rect width="91.264" height="95" fill="white"/>
</clipPath>
</defs>
</svg>
