<svg width="24" height="24" viewBox="0 0 24 24" fill="none" xmlns="http://www.w3.org/2000/svg">
<g clip-path="url(#clip0_1410_100291)">
<path d="M2.96582 1.12988L2.23682 6.92688L7.92882 5.34088" stroke="#F31D00" stroke-width="2" stroke-linecap="round" stroke-linejoin="round"/>
<path d="M2.92088 18.1998C2.51224 17.6023 2.16355 16.9658 1.87988 16.2998" stroke="#F31D00" stroke-width="2" stroke-linecap="round" stroke-linejoin="round"/>
<path d="M8.46104 22.4119C7.9357 22.2326 7.42459 22.014 6.93204 21.7579C6.79871 21.6913 6.66804 21.6199 6.54004 21.5439" stroke="#F31D00" stroke-width="2" stroke-linecap="round" stroke-linejoin="round"/>
<path d="M15.539 22.4092C14.8694 22.6367 14.1796 22.7994 13.479 22.8952" stroke="#F31D00" stroke-width="2" stroke-linecap="round" stroke-linejoin="round"/>
<path d="M21.0801 18.2061C20.6599 18.8217 20.178 19.393 19.6421 19.9111" stroke="#F31D00" stroke-width="2" stroke-linecap="round" stroke-linejoin="round"/>
<path d="M2.75879 6.02661C4.11573 3.92639 6.14772 2.35115 8.51986 1.5605C10.892 0.769843 13.4627 0.810966 15.8084 1.67709C18.154 2.54321 20.1346 4.18264 21.4237 6.32518C22.7127 8.46772 23.2334 10.9855 22.8998 13.4636" stroke="#F31D00" stroke-width="2" stroke-linecap="round" stroke-linejoin="round"/>
</g>
<defs>
<clipPath id="clip0_1410_100291">
<rect width="24" height="24" fill="white"/>
</clipPath>
</defs>
</svg>
