<svg width="28" height="25" viewBox="0 0 28 25" fill="none" xmlns="http://www.w3.org/2000/svg">
<path d="M25.2109 5.5H4.375C3.88281 5.5 3.5 5.11719 3.5 4.625C3.5 4.1875 3.88281 3.75 4.375 3.75H25.375C25.8125 3.75 26.25 3.36719 26.25 2.875C26.25 1.45312 25.0469 0.25 23.625 0.25H3.5C1.53125 0.25 0 1.83594 0 3.75V21.25C0 23.2188 1.53125 24.75 3.5 24.75H25.2109C26.7422 24.75 28 23.6016 28 22.125V8.125C28 6.70312 26.7422 5.5 25.2109 5.5ZM22.75 16.875C21.7656 16.875 21 16.1094 21 15.125C21 14.1953 21.7656 13.375 22.75 13.375C23.6797 13.375 24.5 14.1953 24.5 15.125C24.5 16.1094 23.6797 16.875 22.75 16.875Z" fill="url(#paint0_linear_1301_98229)"/>
<defs>
<linearGradient id="paint0_linear_1301_98229" x1="7.90283" y1="-2.22217" x2="22.9028" y2="24.6528" gradientUnits="userSpaceOnUse">
<stop stop-color="#708DEA"/>
<stop offset="1" stop-color="#3D56A6"/>
</linearGradient>
</defs>
</svg>
