<svg width="25" height="24" viewBox="0 0 25 24" fill="none" xmlns="http://www.w3.org/2000/svg">
<path d="M1.5067 17.7858L6.86383 12.6429C6.97543 12.4822 7.08704 12.2143 7.08704 12C7.08704 11.8393 6.97543 11.5714 6.86383 11.4107L1.5067 6.26786C0.948658 5.73215 0 6.10715 0 6.85715V17.1429C0 17.9464 0.948658 18.3215 1.5067 17.7858ZM24.1071 20.5714H0.892858C0.390625 20.5714 0 21 0 21.4286V23.1429C0 23.625 0.390625 24 0.892858 24H24.1071C24.5536 24 25 23.625 25 23.1429V21.4286C25 21 24.5536 20.5714 24.1071 20.5714ZM24.2744 13.7143H11.3839C10.9933 13.7143 10.7143 14.0357 10.7143 14.4107V16.5001C10.7143 16.875 10.9933 17.1429 11.3839 17.1429H24.2744C24.6651 17.1429 25 16.875 25 16.5001V14.4107C25 14.0357 24.6651 13.7143 24.2744 13.7143ZM24.2744 6.85715H11.3839C10.9933 6.85715 10.7143 7.17858 10.7143 7.55357V9.64286C10.7143 10.0179 10.9933 10.2857 11.3839 10.2857H24.2744C24.6651 10.2857 25 10.0179 25 9.64286V7.55357C25 7.17858 24.6651 6.85715 24.2744 6.85715ZM24.1071 0H0.892858C0.390625 0 0 0.428572 0 0.857143V2.57143C0 3.05358 0.390625 3.42857 0.892858 3.42857H24.1071C24.5536 3.42857 25 3.05358 25 2.57143V0.857143C25 0.428572 24.5536 0 24.1071 0Z" fill="url(#paint0_linear_1410_100276)"/>
<defs>
<linearGradient id="paint0_linear_1410_100276" x1="12.5" y1="-2.4" x2="12.5" y2="25.0286" gradientUnits="userSpaceOnUse">
<stop stop-color="#85CFFA"/>
<stop offset="0.0001" stop-color="#85CFFA"/>
<stop offset="1" stop-color="#2D9CDB"/>
</linearGradient>
</defs>
</svg>
