<svg width="25" height="24" viewBox="0 0 25 24" fill="none" xmlns="http://www.w3.org/2000/svg">
<path d="M19.1429 6.21422C18.6071 5.67854 17.6428 6.05363 17.6428 6.85715V17.1429C17.6428 17.8928 18.6071 18.2679 19.1429 17.7321L24.2857 12.5893C24.3929 12.4286 24.5 12.1607 24.5 12C24.5 11.7857 24.3929 11.5178 24.2857 11.3571L19.1429 6.21422ZM1.35707 3.42857L23.6429 3.42857C24.125 3.42857 24.5 3 24.5 2.57143V0.857145C24.5 0.37495 24.125 1.90735e-06 23.6429 1.90735e-06L1.35707 1.90735e-06C0.928495 1.90735e-06 0.499924 0.37495 0.499924 0.857145V2.57143C0.499924 3 0.928495 3.42857 1.35707 3.42857ZM1.19647 10.2857L13.5714 10.2857C13.9464 10.2857 14.2143 9.96426 14.2143 9.58931V7.49994C14.2143 7.12499 13.9464 6.85715 13.5714 6.85715L1.19647 6.85715C0.821386 6.85715 0.499924 7.12499 0.499924 7.49994L0.499924 9.58931C0.499924 9.96426 0.821386 10.2857 1.19647 10.2857ZM1.19647 17.1429L13.5714 17.1429C13.9464 17.1429 14.2143 16.8214 14.2143 16.4464V14.3571C14.2143 13.9821 13.9464 13.7143 13.5714 13.7143L1.19647 13.7143C0.821386 13.7143 0.499924 13.9821 0.499924 14.3571V16.4464C0.499924 16.8214 0.821386 17.1429 1.19647 17.1429ZM1.35707 24L23.6429 24C24.125 24 24.5 23.5714 24.5 23.1429V21.4286C24.5 20.9464 24.125 20.5714 23.6429 20.5714L1.35707 20.5714C0.928495 20.5714 0.499924 20.9464 0.499924 21.4286V23.1429C0.499924 23.5714 0.928495 24 1.35707 24Z" fill="url(#paint0_linear_1410_100283)"/>
<defs>
<linearGradient id="paint0_linear_1410_100283" x1="12.5" y1="26.4" x2="12.5" y2="-1.02857" gradientUnits="userSpaceOnUse">
<stop stop-color="#F97F7F"/>
<stop offset="1" stop-color="#DB3E3E"/>
</linearGradient>
</defs>
</svg>
